<svg width="291" height="86" viewBox="0 0 291 86" fill="none" xmlns="http://www.w3.org/2000/svg">
    <path d="M286 77.3793C286 78.5121 285.787 79.6339 285.373 80.6804C284.959 81.7269 284.352 82.6776 283.587 83.4782C282.822 84.2789 281.914 84.9137 280.915 85.3464C279.916 85.7791 278.845 86.0012 277.764 86H8.24649C6.06203 86.0024 3.96611 85.0956 2.41966 83.4789C0.873202 81.8623 0.00284686 79.6683 0 77.3793V8.63196C0.00284556 6.34198 0.872857 4.14677 2.419 2.52835C3.96515 0.909935 6.06105 0.000594409 8.24649 0H277.762C278.844 -3.85542e-08 279.915 0.223289 280.914 0.657113C281.914 1.09094 282.822 1.7268 283.586 2.52838C284.351 3.32996 284.958 4.28156 285.372 5.32882C285.785 6.37609 285.998 7.4985 285.998 8.63196L286 77.3793Z" fill="black"/>
    <path d="M95.0897 21.9372C95.0897 23.6566 94.659 25.1611 93.5821 26.2357C92.2898 27.5253 90.7822 28.1701 88.8437 28.1701C86.9053 28.1701 85.3977 27.5253 84.1054 26.2357C82.8131 24.9462 82.167 23.4417 82.167 21.5074C82.167 19.5731 82.8131 18.0686 84.1054 16.779C85.3977 15.4895 86.9053 14.8447 88.8437 14.8447C89.7053 14.8447 90.5668 15.0597 91.4283 15.4895C92.2898 15.9193 92.9359 16.3492 93.3667 16.994L92.2898 18.0686C91.4283 16.994 90.3514 16.5641 88.8437 16.5641C87.5515 16.5641 86.2592 16.994 85.3977 18.0686C84.3208 18.9283 83.89 20.2178 83.89 21.7223C83.89 23.2268 84.3208 24.5163 85.3977 25.376C86.4746 26.2357 87.5515 26.8805 88.8437 26.8805C90.3514 26.8805 91.4283 26.4507 92.5052 25.376C93.1513 24.7313 93.5821 23.8716 93.5821 22.7969H88.8437V21.0775H95.0897V21.9372ZM104.997 16.5641H99.1819V20.6477H104.566V22.1522H99.1819V26.2357H104.997V27.9551H97.4589V15.0597H104.997V16.5641ZM112.105 27.9551H110.382V16.5641H106.72V15.0597H115.766V16.5641H112.105V27.9551ZM122.012 27.9551V15.0597H123.735V27.9551H122.012ZM131.058 27.9551H129.335V16.5641H125.674V15.0597H134.504V16.5641H130.843V27.9551H131.058ZM151.519 26.2357C150.227 27.5253 148.719 28.1701 146.781 28.1701C144.842 28.1701 143.335 27.5253 142.042 26.2357C140.75 24.9462 140.104 23.4417 140.104 21.5074C140.104 19.5731 140.75 18.0686 142.042 16.779C143.335 15.4895 144.842 14.8447 146.781 14.8447C148.719 14.8447 150.227 15.4895 151.519 16.779C152.811 18.0686 153.457 19.5731 153.457 21.5074C153.457 23.4417 152.811 24.9462 151.519 26.2357ZM143.335 25.1611C144.196 26.0208 145.488 26.6656 146.781 26.6656C148.073 26.6656 149.365 26.2357 150.227 25.1611C151.088 24.3014 151.734 23.0119 151.734 21.5074C151.734 20.0029 151.304 18.7134 150.227 17.8537C149.365 16.994 148.073 16.3492 146.781 16.3492C145.488 16.3492 144.196 16.779 143.335 17.8537C142.473 18.7134 141.827 20.0029 141.827 21.5074C141.827 23.0119 142.258 24.3014 143.335 25.1611ZM155.827 27.9551V15.0597H157.765L164.011 25.1611V15.0597H165.734V27.9551H164.011L157.334 17.4238V27.9551H155.827Z" fill="white"/>
    <path d="M139.673 46.8685C134.504 46.8685 130.412 50.7372 130.412 56.1103C130.412 61.2685 134.504 65.3521 139.673 65.3521C144.842 65.3521 148.934 61.4834 148.934 56.1103C148.934 50.5223 144.842 46.8685 139.673 46.8685ZM139.673 61.4834C136.873 61.4834 134.504 59.1193 134.504 55.8954C134.504 52.6715 136.873 50.3073 139.673 50.3073C142.473 50.3073 144.842 52.4566 144.842 55.8954C144.842 59.1193 142.473 61.4834 139.673 61.4834ZM119.643 46.8685C114.474 46.8685 110.382 50.7372 110.382 56.1103C110.382 61.2685 114.474 65.3521 119.643 65.3521C124.812 65.3521 128.904 61.4834 128.904 56.1103C128.904 50.5223 124.812 46.8685 119.643 46.8685ZM119.643 61.4834C116.843 61.4834 114.474 59.1193 114.474 55.8954C114.474 52.6715 116.843 50.3073 119.643 50.3073C122.443 50.3073 124.812 52.4566 124.812 55.8954C124.812 59.1193 122.443 61.4834 119.643 61.4834ZM95.7358 49.6626V53.5312H104.997C104.782 55.6805 103.92 57.3999 102.843 58.4745C101.551 59.764 99.3972 61.2685 95.7358 61.2685C89.9205 61.2685 85.613 56.7551 85.613 50.9521C85.613 45.1492 90.1359 40.6357 95.7358 40.6357C98.7511 40.6357 101.12 41.9253 102.843 43.4298L105.643 40.6357C103.274 38.4865 100.259 36.7671 95.9512 36.7671C88.1975 36.7671 81.5208 43.2148 81.5208 50.9521C81.5208 58.6894 88.1975 65.1372 95.9512 65.1372C100.259 65.1372 103.274 63.8476 105.859 61.0536C108.443 58.4745 109.305 54.8208 109.305 52.0267C109.305 51.167 109.305 50.3073 109.089 49.6626H95.7358ZM193.518 52.6715C192.656 50.5223 190.503 46.8685 185.764 46.8685C181.026 46.8685 177.149 50.5223 177.149 56.1103C177.149 61.2685 181.026 65.3521 186.195 65.3521C190.287 65.3521 192.872 62.773 193.733 61.2685L190.718 59.1193C189.641 60.6237 188.349 61.6984 186.195 61.6984C184.041 61.6984 182.749 60.8387 181.672 58.9043L193.949 53.7461L193.518 52.6715ZM181.026 55.6805C181.026 52.2417 183.826 50.3073 185.764 50.3073C187.272 50.3073 188.78 51.167 189.21 52.2417L181.026 55.6805ZM170.903 64.4924H174.995V37.6268H170.903V64.4924ZM164.442 48.8029C163.365 47.7283 161.642 46.6536 159.488 46.6536C154.965 46.6536 150.657 50.7372 150.657 55.8954C150.657 61.0536 154.75 64.9222 159.488 64.9222C161.642 64.9222 163.365 63.8476 164.226 62.773H164.442V64.0625C164.442 67.5013 162.503 69.4356 159.488 69.4356C157.119 69.4356 155.396 67.7162 154.965 66.2118L151.519 67.7162C152.596 70.0804 155.18 73.0894 159.703 73.0894C164.442 73.0894 168.319 70.2953 168.319 63.6327V47.2984H164.442V48.8029ZM159.703 61.4834C156.903 61.4834 154.534 59.1193 154.534 55.8954C154.534 52.6715 156.903 50.3073 159.703 50.3073C162.503 50.3073 164.657 52.6715 164.657 55.8954C164.657 59.1193 162.503 61.4834 159.703 61.4834ZM212.256 37.6268H202.564V64.4924H206.656V54.3909H212.256C216.779 54.3909 221.086 51.167 221.086 46.0089C221.086 40.8507 216.779 37.6268 212.256 37.6268ZM212.471 50.5223H206.656V41.2805H212.471C215.487 41.2805 217.21 43.8596 217.21 45.7939C216.994 48.1581 215.271 50.5223 212.471 50.5223ZM237.24 46.6536C234.225 46.6536 231.209 47.9432 230.132 50.7372L233.794 52.2417C234.655 50.7372 235.948 50.3073 237.455 50.3073C239.609 50.3073 241.547 51.5969 241.763 53.7461V53.9611C241.117 53.5312 239.394 52.8864 237.671 52.8864C233.794 52.8864 229.917 55.0357 229.917 58.9043C229.917 62.5581 233.148 64.9222 236.594 64.9222C239.394 64.9222 240.686 63.6327 241.763 62.3431H241.978V64.4924H245.855V54.176C245.424 49.4476 241.763 46.6536 237.24 46.6536ZM236.809 61.4834C235.517 61.4834 233.578 60.8387 233.578 59.1193C233.578 56.97 235.948 56.3252 237.886 56.3252C239.609 56.3252 240.471 56.7551 241.547 57.1849C241.117 59.764 238.963 61.4834 236.809 61.4834ZM259.424 47.2984L254.901 58.9043H254.686L249.947 47.2984H245.64L252.747 63.6327L248.655 72.6595H252.747L263.731 47.2984H259.424ZM223.24 64.4924H227.332V37.6268H223.24V64.4924Z" fill="white"/>
    <path d="M15.3994 16.1343C14.7532 16.7791 14.5378 17.8537 14.5378 19.1432V66.6416C14.5378 67.9311 14.9686 69.0058 15.6147 69.6505L15.8301 69.8655L42.5371 43.2148V42.7849L15.3994 16.1343Z" fill="url(#paint0_linear)"/>
    <path d="M51.1523 52.2418L42.3218 43.4298V42.7851L51.1523 33.9731L51.3677 34.1881L61.9213 40.206C64.9366 41.9254 64.9366 44.7194 61.9213 46.4388L51.1523 52.2418Z" fill="url(#paint1_linear)"/>
    <path d="M51.3678 52.0268L42.3218 43L15.3994 69.8656C16.4763 70.9402 17.984 70.9402 19.9224 70.0805L51.3678 52.0268Z" fill="url(#paint2_linear)"/>
    <path d="M51.3678 33.973L19.9224 16.1342C17.984 15.0596 16.4763 15.2745 15.3994 16.3492L42.3218 42.9998L51.3678 33.973Z" fill="url(#paint3_linear)"/>
    <path opacity="0.2" d="M51.1524 51.8115L19.9224 69.4353C18.1993 70.5099 16.6917 70.295 15.6148 69.4353L15.3994 69.6502L15.6148 69.8652C16.6917 70.7249 18.1993 70.9398 19.9224 69.8652L51.1524 51.8115Z" fill="black"/>
    <path opacity="0.2" d="M15.3994 69.4358C14.7532 68.791 14.5378 67.7164 14.5378 66.4268V66.6417C14.5378 67.9313 14.9686 69.0059 15.6147 69.6507V69.4358H15.3994ZM61.9213 45.794L51.1523 51.8119L51.3677 52.0268L61.9213 46.0089C63.4289 45.1492 64.0751 44.0746 64.0751 43C64.0751 44.0746 63.2136 44.9343 61.9213 45.794Z" fill="black"/>
    <path opacity="0.2" d="M19.9223 16.3492L61.9213 40.2058C63.2136 41.0655 64.0751 41.9252 64.0751 42.9998C64.0751 41.9252 63.4289 40.8506 61.9213 39.9909L19.9223 16.1343C16.907 14.4149 14.5378 15.7044 14.5378 19.1432V19.3581C14.5378 16.1343 16.907 14.6298 19.9223 16.3492Z" fill="white"/>
    <defs>
        <linearGradient id="paint0_linear" x1="39.9526" y1="18.7349" x2="3.88183" y2="54.8797" gradientUnits="userSpaceOnUse">
            <stop stop-color="#00A0FF"/>
            <stop offset="0.007" stop-color="#00A1FF"/>
            <stop offset="0.26" stop-color="#00BEFF"/>
            <stop offset="0.512" stop-color="#00D2FF"/>
            <stop offset="0.76" stop-color="#00DFFF"/>
            <stop offset="1" stop-color="#00E3FF"/>
        </linearGradient>
        <linearGradient id="paint1_linear" x1="65.8713" y1="43.0021" x2="13.756" y2="43.0021" gradientUnits="userSpaceOnUse">
            <stop stop-color="#FFE000"/>
            <stop offset="0.409" stop-color="#FFBD00"/>
            <stop offset="0.775" stop-color="#FFA500"/>
            <stop offset="1" stop-color="#FF9C00"/>
        </linearGradient>
        <linearGradient id="paint2_linear" x1="46.4722" y1="47.9347" x2="-2.44031" y2="96.9506" gradientUnits="userSpaceOnUse">
            <stop stop-color="#FF3A44"/>
            <stop offset="1" stop-color="#C31162"/>
        </linearGradient>
        <linearGradient id="paint3_linear" x1="8.71619" y1="0.393157" x2="30.5589" y2="22.2821" gradientUnits="userSpaceOnUse">
            <stop stop-color="#32A071"/>
            <stop offset="0.069" stop-color="#2DA771"/>
            <stop offset="0.476" stop-color="#15CF74"/>
            <stop offset="0.801" stop-color="#06E775"/>
            <stop offset="1" stop-color="#00F076"/>
        </linearGradient>
    </defs>
</svg>
