<svg width="32" height="32" viewBox="0 0 32 32" fill="none" xmlns="http://www.w3.org/2000/svg">
    <g clip-path="url(#clip0)">
        <path d="M28.1177 6.47912L16.0907 0.070512C15.9122 -0.0247149 15.6984 -0.0233785 15.5213 0.0738533L3.8271 6.48246C3.63531 6.58771 3.51636 6.78886 3.51636 7.00771V15.379C3.52337 22.2604 7.60042 28.4859 13.9055 31.2428L15.5287 31.9502C15.6803 32.0163 15.8531 32.0167 16.0051 31.9508L17.8341 31.1609C24.2561 28.4639 28.4341 22.1782 28.4347 15.2129V7.00771C28.4347 6.78652 28.3128 6.58303 28.1177 6.47912ZM27.2372 15.2129C27.2359 21.6981 23.3449 27.5497 17.3654 30.0593L17.3614 30.0613L15.7686 30.749L14.3846 30.1452C8.51561 27.5791 4.72023 21.7846 4.71354 15.379V7.36223L15.813 1.27906L27.2372 7.36657V15.2129Z" fill="#73C8C9" stroke="#73C8C9" stroke-width="0.4"/>
        <path d="M11.3954 14.9909C11.1806 14.7393 10.8027 14.7096 10.5511 14.9244C10.2995 15.1389 10.2697 15.5172 10.4846 15.7684L13.6475 19.4722C13.8586 19.7195 14.2285 19.7532 14.4804 19.5481L21.8467 13.5551C22.1033 13.3466 22.142 12.9694 21.9332 12.7128C21.7247 12.4565 21.3475 12.4174 21.0909 12.6263L14.1784 18.2497L11.3954 14.9909Z" fill="#73C8C9" stroke="#73C8C9" stroke-width="0.4"/>
    </g>
    <defs>
        <clipPath id="clip0">
            <rect width="32" height="32" fill="white"/>
        </clipPath>
    </defs>
</svg>
