<svg width="452" height="211" viewBox="0 0 452 211" fill="none" xmlns="http://www.w3.org/2000/svg">
    <path d="M104.086 117.406C104.029 117.136 103.99 116.868 103.98 116.591C103.906 114.385 103.991 104.46 112.5 117C132.574 146.583 181 157.89 262.5 149.5C344 141.11 366 198.5 446.5 208.5C448.342 208.729 447.712 211 445.856 211L128.858 211C126.025 211 123.579 209.019 122.989 206.248L104.086 117.406Z" fill="#D8F2F9"/>
    <path d="M0 18.3277C0 12.5289 7.25825 10.2056 10.5462 14.9821C11.9125 16.9671 13.3995 19.1412 15 21.4999C35.0743 51.0832 63.3692 104.178 124.5 110C198.316 117.03 226.403 174.874 293.5 208.5C294.744 209.123 294.301 211 292.91 211H5.99999C2.68628 211 0 208.314 0 205V18.3277Z" fill="#F7EDFC"/>
</svg>
