<svg width="32" height="32" viewBox="0 0 32 32" fill="none" xmlns="http://www.w3.org/2000/svg">
    <g clip-path="url(#clip0)">
        <path d="M32 14.8317V14.767C32 13.3198 30.8226 12.1423 29.3754 12.1423H21.8843C22.8476 10.4714 23.3678 8.5984 23.3985 6.66208C23.4037 6.33733 23.4011 6.00208 23.3984 5.64715C23.3966 5.41783 23.3948 5.17533 23.3948 4.91333C23.3948 3.55915 22.2957 2.45708 20.9434 2.45371C20.6912 2.45121 19.851 2.49277 19.1899 3.18327C18.8889 3.49758 18.6811 3.89383 18.5888 4.32902C18.4101 5.17071 18.1873 5.88933 17.9074 6.52596C16.8816 8.85921 15.4198 10.8084 13.5626 12.3193C13.0682 12.7215 12.5431 13.0924 11.9948 13.4293C11.7891 12.6881 11.1087 12.1423 10.3029 12.1423H0.625C0.279813 12.1423 0 12.4221 0 12.7673V28.9212C0 29.2663 0.279813 29.5462 0.625 29.5462H10.3029C11.22 29.5462 11.9746 28.8394 12.0519 27.942C13.2522 28.979 14.7709 29.5462 16.3681 29.5462H29.3753C30.8226 29.5462 32 28.3688 32 26.9216C32 26.1214 31.6401 25.4038 31.0736 24.922C31.6401 24.4401 32 23.7225 32 22.9223V22.8439C32 22.0437 31.6401 21.3261 31.0736 20.8443C31.6401 20.3625 32 19.6448 32 18.8446V18.831C32 18.0308 31.6401 17.3132 31.0736 16.8314C31.6401 16.3496 32 15.632 32 14.8317ZM10.8089 14.4601V14.4633V27.7903C10.8089 28.0693 10.5819 28.2963 10.3029 28.2963H8.02544V22.8508C8.02544 22.5057 7.74563 22.2258 7.40044 22.2258C7.05525 22.2258 6.77544 22.5057 6.77544 22.8508V28.2963H1.25V13.3923H10.3029C10.5819 13.3923 10.8089 13.6193 10.8089 13.8983V14.4601ZM27.6443 17.4564H29.3753C30.1333 17.4564 30.75 18.073 30.75 18.831V18.8446C30.75 19.6026 30.1333 20.2193 29.3753 20.2193H27.6443C27.2991 20.2193 27.0193 20.4991 27.0193 20.8443C27.0193 21.1894 27.2991 21.4693 27.6443 21.4693H29.3753C30.1333 21.4693 30.7499 22.0859 30.7499 22.8439V22.9223C30.7499 23.6803 30.1332 24.297 29.3752 24.297H27.6442C27.299 24.297 27.0192 24.5768 27.0192 24.922C27.0192 25.2671 27.299 25.547 27.6442 25.547H29.3752C30.1332 25.547 30.7499 26.1636 30.7499 26.9216C30.7499 27.6796 30.1332 28.2962 29.3752 28.2962H16.3682C14.9736 28.2962 13.6525 27.7631 12.6484 26.7951L12.0589 26.2268V14.8408C12.8694 14.3893 13.6392 13.8685 14.3514 13.289C16.3639 11.6517 17.9453 9.54552 19.0516 7.02902C19.3664 6.31315 19.6149 5.51483 19.8115 4.58846C19.8562 4.37796 19.9508 4.19596 20.0928 4.04771C20.4004 3.7264 20.8026 3.70346 20.9107 3.70346C20.9218 3.70346 20.9291 3.70371 20.9371 3.70371C21.6029 3.70371 22.1446 4.24633 22.1447 4.91333C22.1447 5.17883 22.1466 5.42452 22.1484 5.65683C22.151 6.00421 22.1536 6.33233 22.1486 6.64227C22.1157 8.7144 21.4522 10.7061 20.2299 12.4019C20.0927 12.5923 20.0736 12.8433 20.1806 13.0521C20.2874 13.261 20.5023 13.3923 20.7369 13.3923H29.3753C30.1333 13.3923 30.7499 14.009 30.7499 14.767V14.8317C30.7499 15.5897 30.1333 16.2064 29.3753 16.2064H27.6443C27.2991 16.2064 27.0193 16.4863 27.0193 16.8314C27.0193 17.1765 27.2991 17.4564 27.6443 17.4564Z" fill="#73C8C9" stroke="#73C8C9" stroke-width="0.1"/>
    </g>
    <defs>
        <clipPath id="clip0">
            <rect width="32" height="32" fill="white"/>
        </clipPath>
    </defs>
</svg>
