<svg width="56" height="56" viewBox="0 0 56 56" fill="none" xmlns="http://www.w3.org/2000/svg">
<g clip-path="url(#clip0)">
<path d="M3.79684 47.6435C1.66735 47.6435 -0.000732422 45.1409 -0.000732422 41.9471C-0.000732422 38.7533 1.66735 36.2507 3.79684 36.2507C5.92633 36.2507 7.59442 38.7533 7.59442 41.9471C7.59442 45.1409 5.92633 47.6435 3.79684 47.6435ZM3.79684 38.1495C2.90061 38.1495 1.89806 39.7739 1.89806 41.9471C1.89806 44.1203 2.90061 45.7447 3.79684 45.7447C4.69307 45.7447 5.69563 44.1203 5.69563 41.9471C5.69563 39.7739 4.69307 38.1495 3.79684 38.1495Z" fill="white"/>
<path d="M24.6834 7.76887C21.9397 7.76887 18.9871 6.87834 18.9871 4.92069C18.9871 2.96304 21.9397 2.07251 24.6834 2.07251C27.4272 2.07251 30.3798 2.96304 30.3798 4.92069C30.3798 6.87834 27.4262 7.76887 24.6834 7.76887ZM20.9105 4.92069C21.1545 5.23114 22.4552 5.87009 24.6844 5.87009C26.9135 5.87009 28.2133 5.23114 28.4582 4.92069C28.2133 4.61024 26.9126 3.9713 24.6844 3.9713C22.4561 3.9713 21.1536 4.61024 20.9105 4.92069ZM28.4895 4.97196H28.499H28.4895Z" fill="white"/>
<path d="M36.712 53.9273C35.4569 53.9273 34.1553 53.8295 32.8091 53.632C26.9855 52.7814 21.0138 50.3433 15.9924 46.7689C15.7067 46.5657 15.4048 46.3853 15.1029 46.204C14.7563 45.9961 14.5797 45.5926 14.6604 45.1976C14.7411 44.8017 15.0639 44.5017 15.4636 44.4476C18.9308 43.9815 23.1271 43.2704 24.443 42.9257C25.6611 42.6077 26.7595 42.0504 27.9225 41.4599C30.7565 40.0225 33.9711 38.3943 40.1213 39.4063C45.4123 40.275 49.5649 40.3073 53.5894 39.5108C53.9217 39.4405 54.2663 39.562 54.4904 39.8184C54.7135 40.0747 54.7828 40.4317 54.6708 40.7516C54.2464 41.9764 53.7489 43.1204 53.1935 44.1543C52.5925 45.2726 51.9014 46.3274 51.1381 47.2911C47.6775 51.6706 42.7388 53.9273 36.712 53.9273ZM18.1922 45.9752C22.7312 48.9667 27.971 51.006 33.0834 51.7541C38.0345 52.4785 44.9281 52.0883 49.6494 46.1157C50.3425 45.2385 50.9729 44.2767 51.5216 43.2571C51.7931 42.7539 52.0485 42.2194 52.2878 41.6593C48.5453 42.1976 44.6186 42.0713 39.8127 41.2804C34.2749 40.3738 31.4818 41.7855 28.7817 43.1555C27.5808 43.765 26.3389 44.3945 24.9234 44.7647C23.7509 45.0704 20.898 45.566 18.1922 45.9752Z" fill="white"/>
<path d="M36.712 53.9274C35.4569 53.9274 34.1552 53.8296 32.809 53.6321C26.9854 52.7815 21.0137 50.3434 15.9924 46.769C15.5661 46.4661 15.1076 46.1965 14.6234 45.9126C14.3253 45.7379 14.0271 45.5623 13.7338 45.3791C12.5917 44.6632 9.46151 45.2594 5.5652 46.937C5.14082 47.1174 4.64903 46.9702 4.39649 46.5857C4.143 46.2012 4.20282 45.6905 4.53795 45.3743C5.2519 44.7012 5.69526 43.3882 5.69526 41.9489C5.69526 39.8393 4.73732 38.2681 3.87717 38.176C3.45849 38.1314 3.11861 37.8171 3.04361 37.4032C2.9686 36.9893 3.17462 36.5734 3.55153 36.3845C7.18106 34.5598 12.0733 34.3908 15.4493 35.9763C15.6971 36.093 15.9449 36.2146 16.1927 36.3361C17.3139 36.8858 18.3735 37.4061 19.5118 37.4887C21.628 37.6292 23.711 36.9257 25.38 35.474C27.2494 33.8458 28.4617 31.4021 28.6231 28.9356C28.7636 26.7956 27.7174 24.8029 25.8936 23.7367C21.5435 21.1952 17.1298 14.6975 19.0039 4.74595C19.095 4.26461 19.546 3.93327 20.0254 3.97599C20.5134 4.02251 20.8865 4.43075 20.8865 4.92159C21.0052 5.15514 22.3248 5.87098 24.6841 5.87098C27.0016 5.87098 28.3165 5.17983 28.4817 4.88551C28.4817 4.88361 28.4817 4.88172 28.4817 4.87982C28.5045 4.3643 28.9136 3.95511 29.451 3.9722C29.9665 3.98359 30.3795 4.40512 30.3795 4.92159C30.3795 4.96906 30.3776 5.01558 30.3748 5.06115C30.1346 10.8392 31.1457 13.0997 31.5985 13.8098C38.6335 11.5626 46.8382 14.1269 51.7428 20.1774C56.8211 26.4434 57.4182 36.3038 53.1944 44.1572C52.5934 45.2756 51.9023 46.3304 51.139 47.294C47.6775 51.6707 42.7387 53.9274 36.712 53.9274ZM12.2888 43.1793C13.2961 43.1793 14.1154 43.3758 14.743 43.7708C15.0202 43.9455 15.3012 44.1097 15.5832 44.2749C16.0816 44.5683 16.5972 44.8702 17.0927 45.2224C21.8729 48.625 27.5522 50.9444 33.0824 51.7542C38.0335 52.4786 44.9271 52.0884 49.6484 46.1158C50.3424 45.2386 50.9719 44.2768 51.5206 43.2572C55.3922 36.0598 54.8767 27.0596 50.2665 21.3727C45.7303 15.7751 38.0829 13.4823 31.6735 15.7884C31.4818 15.8567 31.1001 15.9241 30.6719 15.607C30.2827 15.3194 28.5063 13.6494 28.4399 7.12798C26.1946 8.04225 22.6894 7.99763 20.5913 6.98083C19.8146 14.4231 23.0454 19.8736 26.8487 22.0961C29.2981 23.5278 30.7032 26.1947 30.5153 29.058C30.3178 32.0629 28.8994 34.9224 26.6237 36.9038C24.5702 38.6934 21.9983 39.5735 19.3713 39.3798C17.8655 39.2716 16.5886 38.645 15.3544 38.0393C15.1161 37.9225 14.8787 37.8057 14.6395 37.6937C12.2461 36.5696 8.93934 36.487 6.08736 37.3966C7.00922 38.4276 7.59215 40.0757 7.59215 41.948C7.59215 42.7492 7.48392 43.5201 7.28265 44.2237C9.27922 43.5277 10.9492 43.1793 12.2888 43.1793Z" fill="white"/>
</g>
<defs>
<clipPath id="clip0">
<rect width="56" height="56" fill="white"/>
</clipPath>
</defs>
</svg>
