<svg width="289" height="86" viewBox="0 0 289 86" fill="none" xmlns="http://www.w3.org/2000/svg">
    <g clip-path="url(#clip0)">
        <path d="M289 77.3793C289 78.5121 288.785 79.6339 288.366 80.6804C287.948 81.7269 287.335 82.6776 286.562 83.4782C285.789 84.2789 284.872 84.9137 283.862 85.3464C282.852 85.7791 281.77 86.0012 280.678 86H8.33299C6.12562 86.0024 4.00772 85.0956 2.44504 83.4789C0.882362 81.8623 0.00287672 79.6683 0 77.3793V8.63196C0.0028754 6.34198 0.882013 4.14677 2.44438 2.52835C4.00674 0.909935 6.12462 0.000594409 8.33299 0H280.676C281.769 -3.85542e-08 282.851 0.223289 283.861 0.657113C284.871 1.09094 285.788 1.7268 286.561 2.52838C287.334 3.32996 287.947 4.28156 288.365 5.32882C288.783 6.37609 288.998 7.4985 288.998 8.63196L289 77.3793Z" fill="black"/>
        <path d="M64.5442 42.5472C64.4821 35.6164 70.1978 32.2446 70.4592 32.0876C67.2221 27.3502 62.2048 26.703 60.4416 26.6514C56.2277 26.2062 52.1401 29.1824 49.9935 29.1824C47.804 29.1824 44.4984 26.6944 40.9357 26.7675C36.3511 26.8384 32.0622 29.5028 29.7099 33.6402C24.8554 42.0763 28.4759 54.4734 33.1269 61.2924C35.4535 64.6341 38.1721 68.3608 41.7305 68.2296C45.2118 68.0877 46.5122 66.0039 50.7133 66.0039C54.8759 66.0039 56.097 68.2296 59.7261 68.1457C63.4623 68.0877 65.8146 64.7911 68.0598 61.4214C70.7484 57.5958 71.8281 53.824 71.871 53.6304C71.7853 53.6003 64.617 50.8521 64.5442 42.5472ZM57.6887 22.1656C59.5611 19.8152 60.8422 16.6175 60.4866 13.3726C57.7766 13.493 54.3874 15.2542 52.4357 17.553C50.709 19.5786 49.1665 22.8989 49.565 26.0213C52.6093 26.2492 55.7349 24.4794 57.6887 22.1656Z" fill="white"/>
        <path d="M278.927 0.00341797H134.952L191.344 85.9963H278.927C281.611 85.994 284.185 84.9233 286.084 83.019C287.984 81.1147 289.053 78.5322 289.058 75.8377V10.1663C289.053 7.47119 287.984 4.8879 286.085 2.9828C284.186 1.07769 281.612 0.00626064 278.927 0.00341797V0.00341797Z" fill="url(#paint0_linear)"/>
        <path d="M114.968 67.7498H110.103L107.438 59.3438H98.1743L95.6356 67.7498H90.8989L100.079 39.1321H105.747L114.968 67.7498ZM106.634 55.8172L104.224 48.3445C103.969 47.5811 103.489 45.7834 102.787 42.9534H102.701C102.418 44.1705 101.966 45.9683 101.347 48.3445L98.9777 55.8172H106.634ZM138.529 57.1784C138.529 60.6879 137.58 63.4619 135.68 65.4983C133.979 67.3111 131.865 68.2165 129.343 68.2165C126.62 68.2165 124.662 67.2423 123.473 65.2897V76.1171H118.906V53.8969C118.906 51.6927 118.848 49.4326 118.736 47.1145H122.753L123.008 50.3852H123.094C124.617 47.9209 126.929 46.6887 130.031 46.6887C132.456 46.6887 134.48 47.6499 136.1 49.5745C137.717 51.5034 138.529 54.0366 138.529 57.1784ZM133.876 57.3461C133.876 55.3376 133.426 53.6818 132.522 52.3765C131.535 51.0196 130.209 50.3401 128.546 50.3401C127.419 50.3401 126.395 50.7185 125.48 51.4647C124.563 52.2174 123.964 53.2001 123.683 54.4173C123.558 54.8724 123.487 55.3409 123.471 55.8129V59.2557C123.471 60.7545 123.929 62.0211 124.846 63.0576C125.763 64.0898 126.954 64.6081 128.42 64.6081C130.14 64.6081 131.479 63.9393 132.437 62.6125C133.396 61.2814 133.876 59.5266 133.876 57.3461ZM162.174 57.1784C162.174 60.6879 161.225 63.4619 159.325 65.4983C157.622 67.3111 155.509 68.2165 152.986 68.2165C150.263 68.2165 148.305 67.2423 147.116 65.2897V76.1171H142.548V53.8969C142.548 51.6927 142.491 49.4326 142.379 47.1145H146.396L146.651 50.3852H146.737C148.258 47.9209 150.569 46.6887 153.673 46.6887C156.096 46.6887 158.121 47.6499 159.745 49.5745C161.36 51.5034 162.174 54.0366 162.174 57.1784ZM157.519 57.3461C157.519 55.3376 157.067 53.6818 156.163 52.3765C155.175 51.0196 153.853 50.3401 152.191 50.3401C151.064 50.3401 150.04 50.7185 149.121 51.4647C148.204 52.2174 147.606 53.2001 147.326 54.4173C147.187 54.985 147.112 55.4473 147.112 55.8129V59.2557C147.112 60.7545 147.572 62.0211 148.485 63.0576C149.402 64.0877 150.593 64.6081 152.062 64.6081C153.785 64.6081 155.124 63.9393 156.079 62.6125C157.039 61.2814 157.519 59.5266 157.519 57.3461ZM188.611 59.7223C188.611 62.1587 187.762 64.1393 186.076 65.6682C184.221 67.3369 181.631 68.1734 178.31 68.1734C175.242 68.1734 172.783 67.5799 170.928 66.3908L171.984 62.5695C173.987 63.7608 176.187 64.3543 178.582 64.3543C180.305 64.3543 181.644 63.9629 182.599 63.1866C183.557 62.4082 184.041 61.3674 184.041 60.0685C184.041 58.9052 183.64 57.931 182.854 57.1375C182.064 56.3462 180.757 55.6086 178.921 54.9312C173.929 53.0625 171.431 50.3293 171.431 46.7338C171.431 44.3856 172.314 42.4631 174.075 40.96C175.836 39.459 178.171 38.7085 181.076 38.7085C183.67 38.7085 185.832 39.1622 187.548 40.0676L186.402 43.805C184.787 42.9276 182.963 42.4889 180.924 42.4889C179.313 42.4889 178.049 42.8867 177.145 43.6781C176.384 44.3856 175.999 45.2479 175.999 46.2715C175.999 47.4005 176.438 48.338 177.312 49.0735C178.07 49.7509 179.454 50.4885 181.455 51.2798C183.91 52.2733 185.714 53.4302 186.869 54.7592C188.032 56.0881 188.611 57.7461 188.611 59.7223ZM203.75 50.5551H198.716V60.5739C198.716 63.1221 199.603 64.393 201.381 64.393C202.197 64.393 202.874 64.3242 203.41 64.1801L203.536 67.6616C202.636 67.9993 201.452 68.1691 199.984 68.1691C198.18 68.1691 196.771 67.6165 195.753 66.5112C194.74 65.4059 194.23 63.5544 194.23 60.9481V50.5465H191.231V47.1059H194.23V43.3276L198.716 41.9685V47.1059H203.75V50.5551ZM226.421 57.2623C226.421 60.4341 225.517 63.0383 223.713 65.0747C221.825 67.1714 219.314 68.2165 216.185 68.2165C213.164 68.2165 210.762 67.2122 208.971 65.2059C207.18 63.1952 206.285 60.6621 206.285 57.6063C206.285 54.4087 207.21 51.7895 209.055 49.753C210.904 47.7144 213.393 46.6951 216.523 46.6951C219.539 46.6951 221.962 47.7015 223.796 49.71C225.549 51.6583 226.421 54.1743 226.421 57.2623ZM221.686 57.3676C221.686 55.4774 221.279 53.856 220.463 52.4991C219.505 50.8605 218.134 50.0412 216.358 50.0412C214.529 50.0412 213.125 50.8605 212.17 52.4991C211.351 53.856 210.944 55.5054 210.944 57.4536C210.944 59.346 211.351 60.9717 212.17 62.3243C213.157 63.9629 214.535 64.7822 216.32 64.7822C218.065 64.7822 219.434 63.9457 220.424 62.2835C221.264 60.8943 221.686 59.2621 221.686 57.3676ZM241.273 51.1465C240.798 51.0604 240.316 51.0179 239.834 51.0196C238.227 51.0196 236.984 51.626 236.11 52.8475C235.352 53.9227 234.971 55.2817 234.971 56.9225V67.7498H230.403V53.613C230.407 51.4468 230.363 49.2808 230.27 47.1166H234.249L234.416 51.0648H234.542C235.026 49.7079 235.785 48.6133 236.826 47.794C237.779 47.0781 238.937 46.6904 240.127 46.6887C240.549 46.6887 240.931 46.7188 241.269 46.7725L241.273 51.1465ZM261.7 56.4558C261.712 57.1528 261.656 57.8492 261.533 58.5353H247.831C247.882 60.5739 248.547 62.1351 249.819 63.2103C250.974 64.1694 252.467 64.6511 254.301 64.6511C256.33 64.6511 258.181 64.3285 259.845 63.6769L260.561 66.8574C258.616 67.709 256.319 68.1326 253.669 68.1326C250.481 68.1326 247.979 67.1907 246.158 65.3112C244.341 63.4296 243.431 60.9008 243.431 57.7332C243.431 54.6237 244.277 52.0324 245.971 49.9659C247.745 47.7596 250.143 46.6564 253.159 46.6564C256.122 46.6564 258.365 47.7596 259.888 49.9659C261.094 51.7142 261.7 53.8818 261.7 56.4558ZM257.345 55.2667C257.377 53.9055 257.077 52.7335 256.458 51.7421C255.668 50.4648 254.451 49.8283 252.821 49.8283C251.327 49.8283 250.11 50.4497 249.185 51.697C248.424 52.6883 247.972 53.8797 247.833 55.2624L257.345 55.2667Z" fill="white"/>
        <path d="M96.8569 29.0148C95.5865 29.0148 94.4875 28.9524 93.5728 28.847V15.0113C94.8522 14.8129 96.1451 14.7151 97.4397 14.7188C102.678 14.7188 105.09 17.3058 105.09 21.5227C105.09 26.387 102.241 29.0148 96.8569 29.0148ZM97.6239 16.4929C96.9169 16.4929 96.3149 16.5359 95.8158 16.6392V27.1568C96.0857 27.1998 96.6041 27.2192 97.3325 27.2192C100.765 27.2192 102.718 25.258 102.718 21.5851C102.718 18.31 100.951 16.4929 97.6239 16.4929ZM112.607 29.1201C109.655 29.1201 107.742 26.9074 107.742 23.9032C107.742 20.7722 109.696 18.5401 112.774 18.5401C115.684 18.5401 117.64 20.6475 117.64 23.7377C117.64 26.9074 115.624 29.1201 112.607 29.1201ZM112.693 20.1873C111.071 20.1873 110.032 21.7098 110.032 23.8387C110.032 25.9268 111.093 27.4493 112.672 27.4493C114.251 27.4493 115.311 25.8214 115.311 23.7957C115.311 21.7313 114.272 20.1873 112.693 20.1873ZM134.474 18.7487L131.314 28.89H129.255L127.946 24.486C127.621 23.4087 127.35 22.3157 127.134 21.2109H127.092C126.927 22.3162 126.614 23.4237 126.282 24.486L124.889 28.89H122.809L119.836 18.7487H122.143L123.287 23.5699C123.557 24.7182 123.784 25.8021 123.972 26.8257H124.015C124.18 25.9719 124.45 24.9053 124.846 23.5914L126.282 18.7509H128.111L129.485 23.4882C129.817 24.6365 130.087 25.7633 130.297 26.8278H130.357C130.502 25.7849 130.731 24.6774 131.042 23.4882L132.27 18.7509L134.474 18.7487ZM146.107 28.89H143.862V23.0667C143.862 21.2733 143.176 20.3744 141.824 20.3744C140.494 20.3744 139.579 21.5227 139.579 22.8581V28.89H137.334V21.6475C137.334 20.7507 137.313 19.7895 137.251 18.7466H139.226L139.331 20.3121H139.393C139.997 19.2282 141.222 18.5401 142.596 18.5401C144.717 18.5401 146.109 20.168 146.109 22.8173L146.107 28.89ZM152.298 28.89H150.051V14.0952H152.298V28.89ZM160.484 29.1201C157.534 29.1201 155.619 26.9074 155.619 23.9032C155.619 20.7722 157.573 18.5401 160.649 18.5401C163.561 18.5401 165.514 20.6475 165.514 23.7377C165.516 26.9074 163.498 29.1201 160.484 29.1201ZM160.568 20.1873C158.946 20.1873 157.907 21.7098 157.907 23.8387C157.907 25.9268 158.969 27.4493 160.544 27.4493C162.125 27.4493 163.183 25.8214 163.183 23.7957C163.186 21.7313 162.149 20.1873 160.568 20.1873ZM174.366 28.89L174.204 27.7224H174.144C173.458 28.6621 172.458 29.1201 171.189 29.1201C169.379 29.1201 168.094 27.8471 168.094 26.1354C168.094 23.6323 170.255 22.3377 173.998 22.3377V22.1507C173.998 20.8153 173.293 20.1465 171.901 20.1465C170.904 20.1465 170.03 20.3981 169.261 20.8991L168.805 19.4175C169.739 18.8326 170.904 18.5401 172.273 18.5401C174.913 18.5401 176.245 19.9379 176.245 22.7356V26.4708C176.245 27.4944 176.29 28.2879 176.391 28.8922L174.366 28.89ZM174.058 23.8387C171.564 23.8387 170.313 24.4451 170.313 25.8838C170.313 26.9482 170.958 27.4686 171.853 27.4686C172.995 27.4686 174.058 26.5934 174.058 25.4042V23.8387ZM187.148 28.89L187.043 27.2622H186.98C186.336 28.4922 185.252 29.1201 183.737 29.1201C181.301 29.1201 179.497 26.9697 179.497 23.9441C179.497 20.7722 181.368 18.538 183.921 18.538C185.273 18.538 186.231 18.996 186.771 19.9164H186.815V14.0952H189.063V26.1569C189.063 27.1375 189.086 28.0557 189.146 28.89H187.148ZM186.815 22.9227C186.815 21.5034 185.879 20.2927 184.45 20.2927C182.786 20.2927 181.768 21.7743 181.768 23.8602C181.768 25.9053 182.824 27.3052 184.405 27.3052C185.817 27.3052 186.815 26.073 186.815 24.6129V22.9227ZM203.311 29.1201C200.361 29.1201 198.448 26.9074 198.448 23.9032C198.448 20.7722 200.402 18.5401 203.479 18.5401C206.39 18.5401 208.344 20.6475 208.344 23.7377C208.346 26.9074 206.33 29.1201 203.311 29.1201ZM203.395 20.1873C201.775 20.1873 200.736 21.7098 200.736 23.8387C200.736 25.9268 201.797 27.4493 203.374 27.4493C204.955 27.4493 206.013 25.8214 206.013 23.7957C206.017 21.7313 204.978 20.1873 203.395 20.1873ZM220.418 28.89H218.171V23.0667C218.171 21.2733 217.485 20.3744 216.133 20.3744C214.803 20.3744 213.89 21.5227 213.89 22.8581V28.89H211.643V21.6475C211.643 20.7507 211.622 19.7895 211.559 18.7466H213.535L213.64 20.3121H213.702C214.304 19.2282 215.531 18.538 216.902 18.538C219.023 18.538 220.418 20.1658 220.418 22.8151V28.89ZM235.523 20.4389H233.053V25.3634C233.053 26.6171 233.486 27.2428 234.36 27.2428C234.757 27.2428 235.089 27.1998 235.356 27.1375L235.419 28.8492C234.984 29.0169 234.401 29.1008 233.677 29.1008C231.907 29.1008 230.849 28.1202 230.849 25.5526V20.4389H229.375V18.7487H230.849V16.8908L233.053 16.222V18.7466H235.523V20.4389ZM247.409 28.89H245.166V23.1097C245.166 21.2948 244.483 20.3766 243.129 20.3766C241.965 20.3766 240.881 21.1701 240.881 22.7764V28.89H238.638V14.0952H240.881V20.1873H240.926C241.633 19.082 242.657 18.538 243.964 18.538C246.102 18.538 247.409 20.2067 247.409 22.8581V28.89ZM259.586 24.3613H252.849C252.891 26.2816 254.157 27.3654 256.032 27.3654C257.028 27.3654 257.945 27.1977 258.755 26.8859L259.104 28.4514C258.149 28.8685 257.024 29.0771 255.715 29.0771C252.555 29.0771 250.685 27.0729 250.685 23.9656C250.685 20.8561 252.6 18.5186 255.462 18.5186C258.044 18.5186 259.663 20.4389 259.663 23.3398C259.678 23.6822 259.652 24.025 259.586 24.3613ZM257.527 22.7549C257.527 21.1894 256.741 20.0841 255.306 20.0841C254.016 20.0841 252.996 21.2109 252.851 22.7549H257.527Z" fill="white"/>
    </g>
    <defs>
        <linearGradient id="paint0_linear" x1="212.002" y1="86.2246" x2="212.002" y2="-223.907" gradientUnits="userSpaceOnUse">
            <stop stop-color="#1A1A1A" stop-opacity="0.1"/>
            <stop offset="0.123" stop-color="#212121" stop-opacity="0.151"/>
            <stop offset="0.308" stop-color="#353535" stop-opacity="0.227"/>
            <stop offset="0.532" stop-color="#575757" stop-opacity="0.318"/>
            <stop offset="0.783" stop-color="#858585" stop-opacity="0.421"/>
            <stop offset="1" stop-color="#B3B3B3" stop-opacity="0.51"/>
        </linearGradient>
        <clipPath id="clip0">
            <rect width="288.981" height="86" fill="white"/>
        </clipPath>
    </defs>
</svg>
