<svg width="564" height="117" viewBox="0 0 564 117" fill="none" xmlns="http://www.w3.org/2000/svg">
    <circle opacity="0.5" cx="4" cy="47" r="4" fill="#F6D394"/>
    <circle opacity="0.5" cx="50" cy="47" r="4" fill="#F6D394"/>
    <circle opacity="0.5" cx="27" cy="47" r="4" fill="#F6D394"/>
    <circle opacity="0.5" cx="4" cy="68" r="4" fill="#F6D394"/>
    <circle opacity="0.5" cx="27" cy="68" r="4" fill="#F6D394"/>
    <circle opacity="0.5" cx="50" cy="68" r="4" fill="#F6D394"/>
    <circle opacity="0.5" cx="4" cy="89" r="4" fill="#F6D394"/>
    <circle opacity="0.5" cx="27" cy="89" r="4" fill="#F6D394"/>
    <circle opacity="0.5" cx="50" cy="89" r="4" fill="#F6D394"/>
    <circle opacity="0.5" cx="4" cy="113" r="4" fill="#F6D394"/>
    <circle opacity="0.5" cx="27" cy="113" r="4" fill="#F6D394"/>
    <circle opacity="0.5" cx="50" cy="113" r="4" fill="#F6D394"/>
    <circle opacity="0.5" cx="76" cy="47" r="4" fill="#F6D394"/>
    <circle opacity="0.5" cx="122" cy="47" r="4" fill="#F6D394"/>
    <circle opacity="0.5" cx="99" cy="47" r="4" fill="#F6D394"/>
    <circle opacity="0.5" cx="76" cy="68" r="4" fill="#F6D394"/>
    <circle opacity="0.5" cx="99" cy="68" r="4" fill="#F6D394"/>
    <circle opacity="0.5" cx="122" cy="68" r="4" fill="#F6D394"/>
    <circle opacity="0.5" cx="76" cy="89" r="4" fill="#F6D394"/>
    <circle opacity="0.5" cx="99" cy="89" r="4" fill="#F6D394"/>
    <circle opacity="0.5" cx="122" cy="89" r="4" fill="#F6D394"/>
    <circle opacity="0.5" cx="76" cy="113" r="4" fill="#F6D394"/>
    <circle opacity="0.5" cx="99" cy="113" r="4" fill="#F6D394"/>
    <circle opacity="0.5" cx="122" cy="113" r="4" fill="#F6D394"/>
    <circle opacity="0.5" cx="151" cy="47" r="4" fill="#F6D394"/>
    <circle opacity="0.5" cx="197" cy="47" r="4" fill="#F6D394"/>
    <circle opacity="0.5" cx="174" cy="47" r="4" fill="#F6D394"/>
    <circle opacity="0.5" cx="151" cy="68" r="4" fill="#F6D394"/>
    <circle opacity="0.5" cx="174" cy="68" r="4" fill="#F6D394"/>
    <circle opacity="0.5" cx="197" cy="68" r="4" fill="#F6D394"/>
    <circle opacity="0.5" cx="151" cy="89" r="4" fill="#F6D394"/>
    <circle opacity="0.5" cx="174" cy="89" r="4" fill="#F6D394"/>
    <circle opacity="0.5" cx="197" cy="89" r="4" fill="#F6D394"/>
    <circle opacity="0.5" cx="151" cy="113" r="4" fill="#F6D394"/>
    <circle opacity="0.5" cx="174" cy="113" r="4" fill="#F6D394"/>
    <circle opacity="0.5" cx="197" cy="113" r="4" fill="#F6D394"/>
    <circle opacity="0.5" cx="223" cy="47" r="4" fill="#F6D394"/>
    <circle opacity="0.5" cx="269" cy="26" r="4" fill="#F6D394"/>
    <circle opacity="0.5" cx="246" cy="47" r="4" fill="#F6D394"/>
    <circle opacity="0.5" cx="223" cy="68" r="4" fill="#F6D394"/>
    <circle opacity="0.5" cx="246" cy="68" r="4" fill="#F6D394"/>
    <circle opacity="0.5" cx="269" cy="47" r="4" fill="#F6D394"/>
    <circle opacity="0.5" cx="223" cy="89" r="4" fill="#F6D394"/>
    <circle opacity="0.5" cx="246" cy="89" r="4" fill="#F6D394"/>
    <circle opacity="0.5" cx="269" cy="68" r="4" fill="#F6D394"/>
    <circle opacity="0.5" cx="223" cy="113" r="4" fill="#F6D394"/>
    <circle opacity="0.5" cx="246" cy="113" r="4" fill="#F6D394"/>
    <circle opacity="0.5" cx="269" cy="92" r="4" fill="#F6D394"/>
    <circle opacity="0.5" cx="295" cy="4" r="4" fill="#F6D394"/>
    <circle opacity="0.5" cx="341" cy="4" r="4" fill="#F6D394"/>
    <circle opacity="0.5" cx="318" cy="4" r="4" fill="#F6D394"/>
    <circle opacity="0.5" cx="295" cy="25" r="4" fill="#F6D394"/>
    <circle opacity="0.5" cx="318" cy="25" r="4" fill="#F6D394"/>
    <circle opacity="0.5" cx="341" cy="25" r="4" fill="#F6D394"/>
    <circle opacity="0.5" cx="295" cy="46" r="4" fill="#F6D394"/>
    <circle opacity="0.5" cx="318" cy="46" r="4" fill="#F6D394"/>
    <circle opacity="0.5" cx="341" cy="46" r="4" fill="#F6D394"/>
    <circle opacity="0.5" cx="295" cy="70" r="4" fill="#F6D394"/>
    <circle opacity="0.5" cx="318" cy="70" r="4" fill="#F6D394"/>
    <circle opacity="0.5" cx="341" cy="70" r="4" fill="#F6D394"/>
    <circle opacity="0.5" cx="367" cy="4" r="4" fill="#F6D394"/>
    <circle opacity="0.5" cx="413" cy="4" r="4" fill="#F6D394"/>
    <circle opacity="0.5" cx="390" cy="4" r="4" fill="#F6D394"/>
    <circle opacity="0.5" cx="367" cy="25" r="4" fill="#F6D394"/>
    <circle opacity="0.5" cx="390" cy="25" r="4" fill="#F6D394"/>
    <circle opacity="0.5" cx="413" cy="25" r="4" fill="#F6D394"/>
    <circle opacity="0.5" cx="367" cy="46" r="4" fill="#F6D394"/>
    <circle opacity="0.5" cx="390" cy="46" r="4" fill="#F6D394"/>
    <circle opacity="0.5" cx="413" cy="46" r="4" fill="#F6D394"/>
    <circle opacity="0.5" cx="367" cy="70" r="4" fill="#F6D394"/>
    <circle opacity="0.5" cx="390" cy="70" r="4" fill="#F6D394"/>
    <circle opacity="0.5" cx="413" cy="70" r="4" fill="#F6D394"/>
    <circle opacity="0.5" cx="442" cy="4" r="4" fill="#F6D394"/>
    <circle opacity="0.5" cx="488" cy="4" r="4" fill="#F6D394"/>
    <circle opacity="0.5" cx="465" cy="4" r="4" fill="#F6D394"/>
    <circle opacity="0.5" cx="442" cy="25" r="4" fill="#F6D394"/>
    <circle opacity="0.5" cx="465" cy="25" r="4" fill="#F6D394"/>
    <circle opacity="0.5" cx="488" cy="25" r="4" fill="#F6D394"/>
    <circle opacity="0.5" cx="442" cy="46" r="4" fill="#F6D394"/>
    <circle opacity="0.5" cx="465" cy="46" r="4" fill="#F6D394"/>
    <circle opacity="0.5" cx="488" cy="46" r="4" fill="#F6D394"/>
    <circle opacity="0.5" cx="442" cy="70" r="4" fill="#F6D394"/>
    <circle opacity="0.5" cx="465" cy="70" r="4" fill="#F6D394"/>
    <circle opacity="0.5" cx="488" cy="70" r="4" fill="#F6D394"/>
    <circle opacity="0.5" cx="514" cy="4" r="4" fill="#F6D394"/>
    <circle opacity="0.5" cx="514" cy="25" r="4" fill="#F6D394"/>
    <circle opacity="0.5" cx="537" cy="25" r="4" fill="#F6D394"/>
    <circle opacity="0.5" cx="514" cy="46" r="4" fill="#F6D394"/>
    <circle opacity="0.5" cx="537" cy="46" r="4" fill="#F6D394"/>
    <circle opacity="0.5" cx="560" cy="46" r="4" fill="#F6D394"/>
    <circle opacity="0.5" cx="514" cy="70" r="4" fill="#F6D394"/>
    <circle opacity="0.5" cx="537" cy="70" r="4" fill="#F6D394"/>
    <circle opacity="0.5" cx="560" cy="70" r="4" fill="#F6D394"/>
</svg>
