<svg width="56" height="56" viewBox="0 0 56 56" fill="none" xmlns="http://www.w3.org/2000/svg">
<g clip-path="url(#clip0)">
<path d="M46.122 7.40949C44.9129 5.31486 42.8448 5.05067 41.9833 6.3221C39.6626 9.1192 36.8565 8.55986 32.8534 8.55986C29.6063 8.55986 27.0295 10.3618 25.3785 13.1137C25.3056 13.1194 25.2402 13.125 25.1833 13.1303C26.0437 8.65325 28.7548 6.61046 33.2566 7.38587C34.6543 7.89304 36.2604 7.17067 37.2831 6.03035C39.4094 3.65983 38.5312 0.634082 36.0414 0.510297C30.8015 -0.574359 24.7418 -0.0990087 20.8262 3.5916C19.081 5.23646 17.8432 7.43333 17.1411 10.1242C11.8594 12.7201 7.00433 21.3567 10.471 25.1136C9.84877 31.8835 11.7188 40.1236 16.3106 46.3359C19.0296 50.0149 22.641 53.0093 27.0442 55.2364C29.9498 56.706 33.4351 55.9989 35.533 53.5913C41.3361 46.9317 47.6881 34.5171 44.817 25.9455C44.7335 25.6969 44.4052 24.9353 44.2432 24.5795C44.6498 21.9698 45.15 16.6145 43.2227 12.9891C44.3215 12.4466 46.0984 11.2371 46.359 10.71C46.87 9.88805 46.8094 8.60043 46.122 7.40949ZM34.2639 3.0432C35.1193 2.19737 35.9406 2.2504 35.9194 2.25522C37.0907 2.27293 36.8868 3.85196 35.9808 4.86204C34.8192 6.1572 33.7368 5.71903 33.821 5.72952C32.8915 5.3398 33.513 3.78242 34.2639 3.0432ZM32.9931 1.83848C32.0595 2.78273 31.4239 4.16416 31.6695 5.47397C27.5865 5.39819 24.883 7.68921 23.7524 11.5976C22.5883 10.177 20.9901 9.30498 19.1502 9.50389C21.2241 3.39783 26.5766 1.30375 32.9931 1.83848ZM43.2473 26.7798C45.6506 34.6398 39.5455 46.3237 34.2141 52.4419C32.6258 54.2645 30.002 54.7718 27.8339 53.6751C23.6898 51.5792 20.2944 48.7712 17.7421 45.3291C13.6531 39.8147 11.8602 32.7264 12.156 26.1836C14.0451 26.7863 16.4215 26.1416 18.2432 25.3321C18.4987 25.2184 18.6722 24.9973 18.7356 24.7457C18.9129 24.0428 18.1985 23.4373 17.5326 23.7331C12.5653 25.9406 10.6353 24.1037 11.128 20.8871C11.6767 17.3046 14.9971 12.9393 18.2337 11.5454C21.4648 10.1537 23.7881 13.7437 24.1594 17.2278C24.2594 18.1671 23.3855 19.3532 22.7526 20.0536C22.4287 20.412 22.4565 20.9652 22.8151 21.2892C23.1736 21.613 23.7267 21.5851 24.0507 21.2268C26.0178 19.05 26.2607 17.4783 25.4515 14.8651C26.6164 14.775 30.9305 14.6364 35.191 16.9638C35.4279 19.6156 34.868 21.3771 34.8786 21.687C35.0094 25.5469 39.2533 27.4253 43.2473 26.7798ZM33.736 14.3712C34.0351 14.275 34.3393 14.199 34.6487 14.144C34.7149 14.3613 34.7788 14.5909 34.8386 14.8321C34.4684 14.6633 34.1005 14.5102 33.736 14.3712ZM36.4439 14.0538C38.0129 14.1639 39.3287 14.3822 41.5926 13.6526C43.5985 17.1711 42.7263 23.1852 42.3754 25.1109C39.5557 25.3288 36.9329 24.3958 36.6348 21.7165C37.1618 19.2087 37.134 16.5751 36.4439 14.0538ZM35.1103 12.3238C33.7448 12.4474 32.4353 12.8792 31.2418 13.6081C29.8243 13.2752 28.5375 13.1355 27.4991 13.0885C28.405 11.91 30.1357 10.3096 32.8534 10.3096C36.1076 10.3096 39.1902 10.7495 41.8097 8.87315C42.084 9.67984 42.6258 10.4644 43.2863 10.9643C39.4862 13.2761 36.8671 12.0389 35.1103 12.3238ZM44.8965 9.75956C44.6009 10.1237 42.9738 8.41049 43.4298 7.30079C43.4389 7.29751 43.4508 7.29565 43.4654 7.29565C43.6386 7.29565 44.1785 7.54235 44.6067 8.28408C45.0301 9.01761 44.9795 9.60242 44.8965 9.75956Z" fill="white"/>
<path d="M16.1666 30.925C16.1124 30.4451 15.6801 30.0993 15.1998 30.1536C14.7196 30.2074 14.3741 30.6403 14.4279 31.1204C14.4563 31.3742 15.1596 37.3868 18.1606 41.8011C18.4319 42.2 18.9755 42.3047 19.3758 42.0327C19.7754 41.7611 19.8791 41.217 19.6074 40.8174C16.8542 36.7676 16.1731 30.9831 16.1666 30.925Z" fill="white"/>
<path d="M20.7479 21.9437C19.6892 22.1706 19.8965 23.6769 20.9195 23.6769C21.4629 23.6769 21.883 23.1851 21.7769 22.6304C21.685 22.1623 21.2207 21.8472 20.7479 21.9437Z" fill="white"/>
</g>
<defs>
<clipPath id="clip0">
<rect width="56" height="56" fill="white"/>
</clipPath>
</defs>
</svg>
