<svg width="56" height="56" viewBox="0 0 56 56" fill="none" xmlns="http://www.w3.org/2000/svg">
    <g clip-path="url(#clip0)">
        <path d="M36.3955 38.2754C36.3544 38.2754 36.3125 38.2726 36.2705 38.267C35.7594 38.1989 35.4012 37.7288 35.4693 37.2186C38.0333 18.065 23.619 12.3325 23.0043 12.0984C22.524 11.9146 22.2814 11.3765 22.4643 10.8952C22.6471 10.4139 23.1834 10.1723 23.6656 10.3533C23.8298 10.4158 40.0835 16.8087 37.3189 37.4658C37.2564 37.9349 36.8562 38.2754 36.3955 38.2754Z" fill="white"/>
        <path d="M32.8662 52.2681C31.0585 52.2681 29.7248 49.9568 28.9226 48.0176C28.3984 46.751 27.8593 45.3118 27.3202 43.742C27.1532 43.2551 27.4125 42.7244 27.8994 42.5565C28.3854 42.3886 28.917 42.6498 29.084 43.1358C29.61 44.6701 30.1351 46.072 30.6454 47.3041C31.4773 49.316 32.4091 50.4017 32.8643 50.4017C33.2728 50.4017 34.0974 50.0258 34.8837 49.3085C35.281 48.9504 44.3648 40.6416 44.7883 29.8435C44.8088 29.3286 45.2462 28.921 45.7574 28.948C46.2722 28.9676 46.6733 29.4014 46.6528 29.9162C46.2079 41.2964 37.1735 49.7572 36.1447 50.6843C35.0581 51.6767 33.8325 52.2681 32.8662 52.2681Z" fill="white"/>
        <path d="M8.34646 44.5218C8.23453 44.5218 5.6145 44.4696 5.6145 39.9235C5.6145 39.6185 5.76374 39.3331 6.01371 39.1586C6.07434 39.1167 12.0876 34.8569 12.1436 29.9452C11.2015 23.7565 11.9953 19.8447 14.5006 18.3169C15.1526 17.9195 15.9538 17.9326 16.5918 18.3495C17.2344 18.7702 17.5702 19.5042 17.4667 20.2672C17.3613 21.0441 17.2605 22.2129 17.3771 23.3704C21.0978 20.3856 22.9949 20.8016 23.9491 21.7092C24.1907 21.9041 24.7699 22.4759 24.783 23.4842C24.8026 25.0633 23.4436 26.7916 20.6305 28.7671C20.5158 28.8473 20.5176 28.9686 20.5232 29.0171C20.5344 29.1104 20.581 29.1729 20.6622 29.2036C21.0511 29.338 22.6023 28.9304 23.6283 28.6599C24.4976 28.4304 25.3958 28.1935 26.2511 28.0461C27.2482 27.8736 28.2275 28.3689 28.6864 29.2792C29.1388 30.1774 28.9644 31.2034 28.2425 31.8918C27.9692 32.152 26.128 33.4158 24.7531 33.9829C28.2714 36.3493 29.5707 38.1485 28.8338 39.6203C28.8161 39.6548 28.7965 39.6884 28.776 39.7201C28.692 39.846 28.2163 40.4831 27.112 40.623C25.2755 40.8534 22.7935 39.5756 19.7229 36.8231C19.3125 36.4547 18.7632 36.2933 18.2194 36.3791C17.6915 36.463 17.2549 36.7597 16.991 37.2148C16.7792 37.5814 16.5834 37.9899 16.4108 38.4302C14.4418 43.4454 8.74473 44.4668 8.50223 44.5078C8.45093 44.5181 8.39869 44.5218 8.34646 44.5218ZM7.49115 40.3861C7.5723 41.9876 8.06944 42.5314 8.33527 42.6396C9.1598 42.4568 13.2498 41.3767 14.6741 37.7502C14.8811 37.2223 15.1181 36.7279 15.3764 36.2802C15.9202 35.3438 16.8492 34.7086 17.9265 34.537C19.0271 34.3644 20.1361 34.6899 20.9672 35.4343C24.7307 38.8098 26.6149 38.9665 27.153 38.7072C27.0458 38.3369 26.2045 37.129 23.1134 35.1376C22.5967 34.8047 22.3355 34.1993 22.4502 33.5949C22.565 32.9886 23.0304 32.5186 23.6357 32.3964C24.4323 32.2369 26.6466 30.8107 26.9637 30.5337C27.1101 30.3938 27.0756 30.2296 27.0197 30.1186C26.9861 30.0515 26.8555 29.836 26.5682 29.8845C25.7922 30.0188 24.9331 30.2455 24.103 30.4638C22.1312 30.9842 20.8776 31.2864 19.9925 30.946C19.2724 30.669 18.766 30.0179 18.6708 29.2456C18.5738 28.4612 18.9133 27.6926 19.5569 27.2412C22.6191 25.0903 22.9017 23.8722 22.9157 23.5495C22.9259 23.3051 22.8177 23.195 22.7841 23.167C22.7328 23.1325 22.7189 23.1185 22.6759 23.0747C22.1601 22.5608 20.5372 23.2631 18.6372 24.8264C18.0907 25.2759 17.3426 25.3879 16.686 25.1174C16.0377 24.8497 15.591 24.2527 15.521 23.5578C15.3867 22.2194 15.4995 20.894 15.618 20.0172C15.6208 19.9967 15.6273 19.9482 15.5704 19.9109C15.521 19.8782 15.4902 19.8988 15.4706 19.91C14.4512 20.5321 12.9047 22.6344 13.9969 29.7353C14.0053 29.7819 14.009 29.8295 14.009 29.8771C14.009 35.0173 8.99377 39.2379 7.49115 40.3861ZM27.2668 38.6298C27.2668 38.6298 27.2659 38.6298 27.265 38.6316C27.2659 38.6316 27.2668 38.6307 27.2668 38.6298Z" fill="white"/>
        <path d="M32.8764 56.0001C32.4501 56.0001 32.0136 55.9562 31.5687 55.8564C29.055 55.2959 27.0049 53.1375 25.4761 49.4439C24.1955 46.3482 22.8626 42.3599 21.7238 38.2139C21.6193 37.8333 21.7658 37.4295 22.0885 37.2028C22.4121 36.9771 22.8421 36.9789 23.1639 37.2065C25.5209 38.8798 26.7391 38.892 27.1523 38.7036C27.0403 38.3277 26.1925 37.1217 23.1135 35.1387C22.5968 34.8057 22.3356 34.2004 22.4504 33.5959C22.5651 32.9897 23.0305 32.5196 23.6359 32.3974C24.4324 32.2379 26.6467 30.8118 26.9638 30.5338C27.1103 30.3939 27.0758 30.2297 27.0198 30.1187C26.9862 30.0516 26.8556 29.8361 26.5684 29.8846C25.7923 30.0189 24.9333 30.2456 24.1032 30.4638C22.1314 30.9843 20.8778 31.2865 19.9926 30.9461C19.2726 30.669 18.767 30.018 18.671 29.2466C18.574 28.4622 18.9135 27.6936 19.5571 27.2422C22.6192 25.0913 22.9018 23.8732 22.9158 23.5505C22.9261 23.3061 22.8179 23.196 22.7843 23.168C22.733 23.1335 22.719 23.1195 22.6761 23.0757C22.1603 22.5618 20.5374 23.2641 18.6374 24.8274C18.0908 25.2769 17.3428 25.3889 16.6861 25.1184C16.0379 24.8507 15.5911 24.2537 15.5211 23.5589C15.4129 22.4862 15.4456 21.2951 15.6181 20.0192C15.6209 19.9977 15.6275 19.9492 15.5706 19.9128C15.5221 19.8811 15.4894 19.8998 15.4708 19.9119C14.6593 20.4072 14.0866 21.4929 13.8143 23.0524C13.7443 23.4535 13.4234 23.7622 13.0196 23.8172C12.6176 23.8685 12.2249 23.6587 12.0514 23.2902C10.9862 21.0312 9.6375 17.6081 9.26161 14.1271C8.75794 9.46534 11.1037 4.88285 15.2385 2.45216C21.1324 -1.01292 30.6127 -2.52301 42.3072 9.96156C47.9325 15.9665 50.643 22.6149 50.3641 29.7223C49.8427 43.0883 39.1154 53.0256 38.6593 53.4425C37.748 54.2745 35.5347 56.0001 32.8764 56.0001ZM24.1675 39.9777C25.1273 43.2208 26.1813 46.268 27.2008 48.7304C28.4833 51.8298 30.0894 53.6151 31.9754 54.0357C34.3454 54.5609 36.5597 52.8325 37.4029 52.064C37.5093 51.9669 48.0099 42.2433 48.5033 29.6458C48.7617 23.0561 46.22 16.8609 40.9491 11.2338C30.0969 -0.34975 21.4925 0.937414 16.1862 4.05739C12.6819 6.11778 10.6934 9.98954 11.1187 13.9238C11.3593 16.1521 12.0411 18.3776 12.7705 20.2421C13.208 19.397 13.7863 18.7525 14.5017 18.3169C15.1537 17.9215 15.9549 17.9336 16.5928 18.3505C17.2355 18.7712 17.5713 19.5062 17.4677 20.2682C17.3623 21.0452 17.2616 22.2157 17.3782 23.3714C21.0989 20.3867 22.996 20.8026 23.9502 21.7102C24.1918 21.9051 24.771 22.4769 24.7841 23.4852C24.8036 25.0643 23.4447 26.7926 20.6316 28.7681C20.5168 28.8484 20.5187 28.9696 20.5243 29.0181C20.5355 29.1114 20.5821 29.1739 20.6633 29.2047C21.055 29.3399 22.6043 28.9314 23.6293 28.6609C24.4986 28.4314 25.3969 28.1945 26.2522 28.0471C27.2493 27.8746 28.2286 28.3699 28.6875 29.2802C29.1399 30.1784 28.9655 31.2044 28.2435 31.8928C27.9693 32.1539 26.1281 33.4169 24.7542 33.984C28.2734 36.3503 29.5717 38.1495 28.8349 39.6214C28.8162 39.6577 28.7957 39.6932 28.7733 39.7268C28.6968 39.8396 28.265 40.4132 27.2838 40.5914C26.4033 40.7509 25.3596 40.5448 24.1675 39.9777ZM27.2707 38.6243C27.2707 38.6243 27.2707 38.6243 27.2698 38.6252C27.2707 38.6252 27.2716 38.6243 27.2707 38.6243Z" fill="white"/>
    </g>
    <defs>
        <clipPath id="clip0">
            <rect width="56" height="56" fill="white"/>
        </clipPath>
    </defs>
</svg>
