<svg width="58" height="56" viewBox="0 0 58 56" fill="none" xmlns="http://www.w3.org/2000/svg">
<path d="M4.71166 55.9998C4.6772 55.9998 4.64274 55.9998 4.60732 55.9989C3.16953 55.9756 1.98924 54.1957 1.80162 51.7672C1.69345 50.3803 1.41489 49.0363 1.12006 47.6121C0.856812 46.3409 0.584953 45.0259 0.447109 43.6828C-0.156916 37.7861 -0.479509 30.8152 1.71259 23.8181C1.83608 23.4233 1.96818 23.0285 2.10794 22.6355C3.00775 20.0997 4.00808 18.1743 5.25729 16.5764C8.49375 12.4344 14.0898 10.62 22.3653 11.0475C25.2686 11.1959 29.8969 11.8118 32.6816 12.4222C35.2594 12.986 37.933 13.1866 40.6286 13.0168C44.5744 12.7676 49.0821 11.6634 51.5901 10.3316C53.0576 9.55321 54.8046 9.76508 56.0394 10.8748C57.2465 11.9593 57.6007 13.6001 56.9402 15.0551C56.0614 16.9918 54.1929 19.3521 51.3843 22.07C50.6022 22.8278 49.5799 23.8339 48.6112 24.8895C46.0266 27.7081 36.6474 37.3745 24.4693 43.4187C22.0197 44.6339 19.5538 45.4711 17.1387 45.9051C14.6498 46.3521 11.2736 47.7278 9.31603 51.7355C9.2586 51.8522 9.21456 52.0248 9.15426 52.2246C8.81539 53.3567 8.02374 55.9998 4.71166 55.9998ZM3.54381 24.3631C1.45031 31.0448 1.76716 37.7852 2.35299 43.4971C2.48127 44.7477 2.74355 46.0161 2.99722 47.2434C3.29014 48.6602 3.59359 50.1246 3.71037 51.6272C3.8329 53.2055 4.44937 54.052 4.68581 54.1397C6.4395 54.136 6.89898 53.0963 7.31729 51.7C7.40536 51.4051 7.48194 51.1503 7.5882 50.9319C10.0139 45.9639 14.3962 44.4995 16.7922 44.0683C19.0254 43.666 21.3171 42.8876 23.602 41.7546C35.4844 35.8579 44.6568 26.4024 47.1858 23.6454C48.188 22.5534 49.2362 21.5221 50.0375 20.7465C52.6756 18.1929 54.4092 16.0239 55.1913 14.301C55.5838 13.4368 55.2171 12.6742 54.7443 12.2486C54.2484 11.8034 53.4012 11.4973 52.5072 11.9724C49.308 13.6701 44.2987 14.6566 40.7531 14.8806C37.8746 15.0598 35.0182 14.847 32.2632 14.2441C29.5647 13.6533 25.08 13.056 22.2657 12.9122C14.5618 12.5156 9.64341 14.0434 6.78123 17.7086C5.65934 19.144 4.74995 20.9042 3.91906 23.2469C3.78504 23.6174 3.6606 23.9898 3.54381 24.3631Z" fill="white"/>
<path d="M6.53814 46.6656C6.45677 46.6656 6.3754 46.6554 6.29404 46.6348C5.93986 46.5434 5.66895 46.2634 5.59907 45.9124C5.5828 45.8313 5.55121 45.6959 5.50909 45.5149C5.07163 43.61 3.74009 37.8141 4.64182 33.4172C4.74521 32.9123 5.25064 32.5837 5.76851 32.6855C6.28734 32.7863 6.62333 33.2781 6.51899 33.784C6.02218 36.2041 6.21746 39.5762 7.09621 43.819C10.4609 40.754 14.2976 39.7722 15.923 39.48C17.8366 39.1356 19.8659 38.206 21.4205 37.4361C21.8915 37.2018 22.4677 37.3847 22.708 37.8449C22.9473 38.304 22.7597 38.8659 22.2887 39.1002C20.6193 39.929 18.4272 40.9285 16.2705 41.3168C14.6336 41.6108 10.4791 42.6906 7.26469 46.3427C7.07994 46.5499 6.81287 46.6656 6.53814 46.6656Z" fill="white"/>
<path d="M6.53797 27.0665C6.43459 27.0665 6.32833 27.0497 6.22495 27.0143C5.72527 26.8463 5.46011 26.3143 5.63337 25.8271C6.34461 23.8232 8.11456 20.6201 9.06415 19.404C10.9748 16.9577 14.329 15.8667 19.9395 15.8667C20.4679 15.8667 20.8967 16.2848 20.8967 16.8C20.8967 17.3152 20.4679 17.7333 19.9395 17.7333C14.9857 17.7333 12.1015 18.5976 10.5871 20.5352C9.73902 21.6215 8.08776 24.6184 7.44257 26.4384C7.30569 26.8248 6.93427 27.0665 6.53797 27.0665Z" fill="white"/>
<path d="M30.4693 10.2666C29.9409 10.2666 29.5121 9.84847 29.5121 9.33328C29.5121 6.76012 27.365 4.66669 24.7258 4.66669C24.1974 4.66669 23.7686 4.24856 23.7686 3.73337C23.7686 3.21818 24.1974 2.80005 24.7258 2.80005C28.4208 2.80005 31.4266 5.73067 31.4266 9.33328C31.4266 9.84847 30.9977 10.2666 30.4693 10.2666Z" fill="white"/>
<path d="M34.2986 10.2666C33.7702 10.2666 33.3413 9.84847 33.3413 9.33328C33.3413 8.81809 33.7702 8.39996 34.2986 8.39996C36.9377 8.39996 39.0848 6.30653 39.0848 3.73337C39.0848 3.21818 39.5137 2.80005 40.0421 2.80005C40.5705 2.80005 40.9993 3.21818 40.9993 3.73337C40.9993 7.33598 37.9926 10.2666 34.2986 10.2666Z" fill="white"/>
<path d="M34.2982 14.598C34.2484 14.598 34.1996 14.5943 34.1498 14.5868C33.5181 14.4898 32.8872 14.3806 32.2612 14.2434C31.6821 14.1164 31.0101 13.9905 30.3017 13.8682C29.8451 13.7898 29.512 13.4015 29.512 12.9498V2.79996C29.512 1.25625 30.8004 0 32.3837 0C33.967 0 35.2555 1.25625 35.2555 2.79996V13.6647C35.2555 13.9373 35.1329 14.1967 34.9204 14.374C34.7453 14.5196 34.5241 14.598 34.2982 14.598ZM32.6814 12.4225C32.9006 12.4701 33.1208 12.5149 33.341 12.5569V2.79996C33.341 2.2857 32.9121 1.86664 32.3837 1.86664C31.8553 1.86664 31.4265 2.2857 31.4265 2.79996V12.1714C31.8735 12.2535 32.2966 12.3375 32.6814 12.4225Z" fill="white"/>
<path d="M27.5978 55.9992C26.0145 55.9992 24.7261 54.7429 24.7261 53.1992V41.7278C24.7261 41.3862 24.9166 41.0726 25.2238 40.9093C26.4654 40.2476 27.7357 39.5149 28.9992 38.7337C29.2941 38.5508 29.6674 38.5396 29.9737 38.7039C30.28 38.8681 30.4696 39.1817 30.4696 39.5214V53.1992C30.4696 54.7429 29.1811 55.9992 27.5978 55.9992ZM26.6406 42.2785V53.1992C26.6406 53.7135 27.0694 54.1325 27.5978 54.1325C28.1262 54.1325 28.5551 53.7135 28.5551 53.1992V41.1949C27.9137 41.571 27.2743 41.9331 26.6406 42.2785Z" fill="white"/>
<path d="M13.1672 13.6329C12.858 13.6329 12.5613 13.4864 12.3794 13.2297C11.4796 11.9586 10.0121 11.1998 8.45278 11.1998H7.49553C5.91224 11.1998 4.62378 9.94352 4.62378 8.39981C4.62378 6.8561 5.91224 5.59985 7.49553 5.59985H8.45278C12.5766 5.59985 16.3415 7.97422 18.0435 11.6496C18.1717 11.9259 18.1535 12.2451 17.9966 12.5055C17.8396 12.7668 17.562 12.9376 17.2528 12.9637C15.8657 13.0795 14.5763 13.2941 13.4199 13.6003C13.3357 13.6227 13.2515 13.6329 13.1672 13.6329ZM7.49553 7.46649C6.96713 7.46649 6.53828 7.88555 6.53828 8.39981C6.53828 8.91407 6.96713 9.33313 7.49553 9.33313H8.45278C10.4161 9.33313 12.2732 10.1871 13.5425 11.644C14.2116 11.4891 14.9152 11.3612 15.6465 11.2614C14.0699 8.92154 11.3705 7.46649 8.45278 7.46649H7.49553Z" fill="white"/>
<path d="M44.8283 43.866H42.9138C38.4214 43.866 34.421 41.0791 32.9612 36.9305C32.8253 36.5441 32.9631 36.1157 33.3011 35.8749C34.3923 35.0956 35.5008 34.2631 36.5959 33.3998C36.8697 33.1842 37.2449 33.1319 37.5694 33.2654C37.8949 33.3989 38.1179 33.6956 38.1505 34.0391C38.3812 36.4499 40.4288 38.267 42.9138 38.267H44.8283C46.4116 38.267 47.7 39.5233 47.7 41.067C47.7 42.6107 46.4116 43.866 44.8283 43.866ZM35.0222 36.9548C36.3815 39.9974 39.4705 41.9994 42.9138 41.9994H44.8283C45.3567 41.9994 45.7855 41.5803 45.7855 41.0661C45.7855 40.5518 45.3567 40.1327 44.8283 40.1327H42.9138C39.9999 40.1327 37.5149 38.3473 36.595 35.7844C36.0704 36.1839 35.5449 36.5749 35.0222 36.9548Z" fill="white"/>
</svg>
