<svg width="270" height="64" viewBox="0 0 270 64" fill="none" xmlns="http://www.w3.org/2000/svg">
    <path d="M78.72 16.76C78.72 20.96 81.76 24.24 86.2 24.24C90.64 24.24 93.68 20.96 93.68 16.76C93.68 12.66 90.64 9.46 86.2 9.46C81.76 9.46 78.72 12.66 78.72 16.76ZM82.34 16.76C82.34 14.42 83.94 12.66 86.2 12.66C88.46 12.66 90.06 14.42 90.06 16.76C90.06 19.2 88.46 21.04 86.2 21.04C83.94 21.04 82.34 19.2 82.34 16.76ZM95.4295 24H98.8895V19.64C98.8895 18.22 99.2895 16.6 100.87 16.6C101.53 16.6 101.67 17.14 101.67 17.9V24H105.13V19.64C105.13 18.1 105.61 16.6 107.11 16.6C107.77 16.6 107.91 17.14 107.91 17.9V24H111.37V17.32C111.37 14.48 109.91 13.46 108.03 13.46C106.49 13.46 105.27 14.34 104.73 15.2H104.69C104.15 14.04 103.11 13.46 101.81 13.46C100.19 13.46 99.2295 14.52 98.7495 15.24H98.7095C98.7095 15.24 98.7495 14.94 98.7495 14.6V13.7H95.4295V24ZM113.613 24H117.073V19.34C117.073 17.88 117.773 16.6 119.313 16.6C120.073 16.6 120.453 17 120.453 17.96V24H123.913V17.32C123.913 14.42 122.293 13.46 120.213 13.46C118.393 13.46 117.413 14.44 116.933 15.24H116.893C116.893 15.24 116.933 14.94 116.933 14.6V13.7H113.613V24ZM126.173 12.4H129.553V9.7H126.173V12.4ZM126.133 24H129.593V13.7H126.133V24ZM131.334 18.88C131.334 22.1 133.934 24.24 137.174 24.24C140.414 24.24 143.014 22.1 143.014 18.88C143.014 15.64 140.414 13.46 137.154 13.46C133.934 13.46 131.334 15.64 131.334 18.88ZM134.834 18.88C134.834 17.32 135.914 16.34 137.174 16.34C138.434 16.34 139.514 17.32 139.514 18.88C139.514 20.42 138.434 21.36 137.174 21.36C135.914 21.36 134.834 20.42 134.834 18.88Z" fill="#73C8C9"/>
    <path d="M86.0078 48H84.5625V40.7422H80.6719V48H79.2188V39.5469H86.0078V48ZM91.0938 45.8828L93.0625 39.5469H94.6094L91.2109 49.3047C90.6849 50.7109 89.849 51.4141 88.7031 51.4141L88.4297 51.3906L87.8906 51.2891V50.1172L88.2812 50.1484C88.7708 50.1484 89.151 50.0495 89.4219 49.8516C89.6979 49.6536 89.9245 49.2917 90.1016 48.7656L90.4219 47.9062L87.4062 39.5469H88.9844L91.0938 45.8828ZM102.508 39.5469V48H101.055V40.7422H98.1797L98.0078 43.9062C97.9141 45.3594 97.6693 46.3984 97.2734 47.0234C96.8828 47.6484 96.2604 47.974 95.4062 48H94.8281V46.7266L95.2422 46.6953C95.7109 46.6432 96.0469 46.3724 96.25 45.8828C96.4531 45.3932 96.5833 44.487 96.6406 43.1641L96.7969 39.5469H102.508ZM106.406 42.4609H108.602C109.56 42.4714 110.318 42.7214 110.875 43.2109C111.432 43.7005 111.711 44.3646 111.711 45.2031C111.711 46.0469 111.424 46.724 110.852 47.2344C110.279 47.7448 109.508 48 108.539 48H104.961V39.5469H106.406V42.4609ZM106.406 43.6406V46.8203H108.555C109.096 46.8203 109.516 46.6823 109.812 46.4062C110.109 46.125 110.258 45.7422 110.258 45.2578C110.258 44.7891 110.112 44.4062 109.82 44.1094C109.534 43.8073 109.13 43.651 108.609 43.6406H106.406ZM116.906 46.9766C117.422 46.9766 117.872 46.8203 118.258 46.5078C118.643 46.1953 118.857 45.8047 118.898 45.3359H120.266C120.24 45.8203 120.073 46.2812 119.766 46.7188C119.458 47.1562 119.047 47.5052 118.531 47.7656C118.021 48.026 117.479 48.1562 116.906 48.1562C115.755 48.1562 114.839 47.7734 114.156 47.0078C113.479 46.237 113.141 45.1849 113.141 43.8516V43.6094C113.141 42.7865 113.292 42.0547 113.594 41.4141C113.896 40.7734 114.328 40.276 114.891 39.9219C115.458 39.5677 116.128 39.3906 116.898 39.3906C117.846 39.3906 118.633 39.6745 119.258 40.2422C119.888 40.8099 120.224 41.5469 120.266 42.4531H118.898C118.857 41.9062 118.648 41.4583 118.273 41.1094C117.904 40.7552 117.445 40.5781 116.898 40.5781C116.164 40.5781 115.594 40.8438 115.188 41.375C114.786 41.901 114.586 42.6641 114.586 43.6641V43.9375C114.586 44.9115 114.786 45.6615 115.188 46.1875C115.589 46.7135 116.161 46.9766 116.906 46.9766ZM121.508 43.6953C121.508 42.8672 121.669 42.1224 121.992 41.4609C122.32 40.7995 122.773 40.2891 123.352 39.9297C123.935 39.5703 124.599 39.3906 125.344 39.3906C126.495 39.3906 127.424 39.7891 128.133 40.5859C128.846 41.3828 129.203 42.4427 129.203 43.7656V43.8672C129.203 44.6901 129.044 45.4297 128.727 46.0859C128.414 46.737 127.964 47.2448 127.375 47.6094C126.792 47.974 126.12 48.1562 125.359 48.1562C124.214 48.1562 123.284 47.7578 122.57 46.9609C121.862 46.1641 121.508 45.1094 121.508 43.7969V43.6953ZM122.961 43.8672C122.961 44.8047 123.177 45.5573 123.609 46.125C124.047 46.6927 124.63 46.9766 125.359 46.9766C126.094 46.9766 126.677 46.6901 127.109 46.1172C127.542 45.5391 127.758 44.7318 127.758 43.6953C127.758 42.7682 127.536 42.0182 127.094 41.4453C126.656 40.8672 126.073 40.5781 125.344 40.5781C124.63 40.5781 124.055 40.862 123.617 41.4297C123.18 41.9974 122.961 42.8099 122.961 43.8672ZM131.148 48V39.5469H134.445C135.57 39.5469 136.432 39.7448 137.031 40.1406C137.635 40.5312 137.938 41.1068 137.938 41.8672C137.938 42.2578 137.82 42.612 137.586 42.9297C137.352 43.2422 137.005 43.4818 136.547 43.6484C137.057 43.7682 137.466 44.0026 137.773 44.3516C138.086 44.7005 138.242 45.1172 138.242 45.6016C138.242 46.3776 137.956 46.9714 137.383 47.3828C136.815 47.7943 136.01 48 134.969 48H131.148ZM132.594 44.2891V46.8359H134.984C135.589 46.8359 136.039 46.724 136.336 46.5C136.638 46.276 136.789 45.9609 136.789 45.5547C136.789 44.7109 136.169 44.2891 134.93 44.2891H132.594ZM132.594 43.1328H134.461C135.815 43.1328 136.492 42.737 136.492 41.9453C136.492 41.1536 135.852 40.7448 134.57 40.7188H132.594V43.1328ZM145.375 48C145.292 47.8333 145.224 47.5365 145.172 47.1094C144.5 47.8073 143.698 48.1562 142.766 48.1562C141.932 48.1562 141.247 47.9219 140.711 47.4531C140.18 46.9792 139.914 46.3802 139.914 45.6562C139.914 44.776 140.247 44.0938 140.914 43.6094C141.586 43.1198 142.529 42.875 143.742 42.875H145.148V42.2109C145.148 41.7057 144.997 41.3047 144.695 41.0078C144.393 40.7057 143.948 40.5547 143.359 40.5547C142.844 40.5547 142.411 40.6849 142.062 40.9453C141.714 41.2057 141.539 41.5208 141.539 41.8906H140.086C140.086 41.4688 140.234 41.0625 140.531 40.6719C140.833 40.276 141.24 39.9635 141.75 39.7344C142.266 39.5052 142.831 39.3906 143.445 39.3906C144.419 39.3906 145.182 39.6354 145.734 40.125C146.286 40.6094 146.573 41.2786 146.594 42.1328V46.0234C146.594 46.7995 146.693 47.4167 146.891 47.875V48H145.375ZM142.977 46.8984C143.43 46.8984 143.859 46.7812 144.266 46.5469C144.672 46.3125 144.966 46.0078 145.148 45.6328V43.8984H144.016C142.245 43.8984 141.359 44.4167 141.359 45.4531C141.359 45.9062 141.51 46.2604 141.812 46.5156C142.115 46.7708 142.503 46.8984 142.977 46.8984ZM155.32 39.5469V48H153.867V44.7109H151.688L149.695 48H148.133L150.258 44.4922C149.716 44.2943 149.299 43.9896 149.008 43.5781C148.721 43.1615 148.578 42.6771 148.578 42.125C148.578 41.3542 148.867 40.7344 149.445 40.2656C150.023 39.7917 150.797 39.5521 151.766 39.5469H155.32ZM150.031 42.1406C150.031 42.5521 150.172 42.8854 150.453 43.1406C150.734 43.3906 151.107 43.5182 151.57 43.5234H153.867V40.7188H151.789C151.253 40.7188 150.826 40.8516 150.508 41.1172C150.19 41.3776 150.031 41.7188 150.031 42.1406ZM161.539 46.8203L162.039 46.2031C162.602 45.474 162.922 44.3802 163 42.9219L163.133 39.5469H168.578V46.8203H169.664V50.4844H168.219V48H162.32V50.4844H160.875L160.883 46.8203H161.539ZM163.25 46.8203H167.133V40.8828H164.531L164.445 42.8984C164.357 44.5807 163.958 45.888 163.25 46.8203ZM176.734 39.5469H178.18V48H176.734V41.8359L172.836 48H171.391V39.5469H172.836V45.7188L176.734 39.5469ZM185.719 48C185.635 47.8333 185.568 47.5365 185.516 47.1094C184.844 47.8073 184.042 48.1562 183.109 48.1562C182.276 48.1562 181.591 47.9219 181.055 47.4531C180.523 46.9792 180.258 46.3802 180.258 45.6562C180.258 44.776 180.591 44.0938 181.258 43.6094C181.93 43.1198 182.872 42.875 184.086 42.875H185.492V42.2109C185.492 41.7057 185.341 41.3047 185.039 41.0078C184.737 40.7057 184.292 40.5547 183.703 40.5547C183.188 40.5547 182.755 40.6849 182.406 40.9453C182.057 41.2057 181.883 41.5208 181.883 41.8906H180.43C180.43 41.4688 180.578 41.0625 180.875 40.6719C181.177 40.276 181.583 39.9635 182.094 39.7344C182.609 39.5052 183.174 39.3906 183.789 39.3906C184.763 39.3906 185.526 39.6354 186.078 40.125C186.63 40.6094 186.917 41.2786 186.938 42.1328V46.0234C186.938 46.7995 187.036 47.4167 187.234 47.875V48H185.719ZM183.32 46.8984C183.773 46.8984 184.203 46.7812 184.609 46.5469C185.016 46.3125 185.31 46.0078 185.492 45.6328V43.8984H184.359C182.589 43.8984 181.703 44.4167 181.703 45.4531C181.703 45.9062 181.854 46.2604 182.156 46.5156C182.458 46.7708 182.846 46.8984 183.32 46.8984ZM194.664 40.7422H190.766V48H189.312V39.5469H194.664V40.7422ZM202.828 48H201.383V44.3906H197.5V48H196.047V39.5469H197.5V43.2109H201.383V39.5469H202.828V48ZM204.773 43.6953C204.773 42.8672 204.935 42.1224 205.258 41.4609C205.586 40.7995 206.039 40.2891 206.617 39.9297C207.201 39.5703 207.865 39.3906 208.609 39.3906C209.76 39.3906 210.69 39.7891 211.398 40.5859C212.112 41.3828 212.469 42.4427 212.469 43.7656V43.8672C212.469 44.6901 212.31 45.4297 211.992 46.0859C211.68 46.737 211.229 47.2448 210.641 47.6094C210.057 47.974 209.385 48.1562 208.625 48.1562C207.479 48.1562 206.549 47.7578 205.836 46.9609C205.128 46.1641 204.773 45.1094 204.773 43.7969V43.6953ZM206.227 43.8672C206.227 44.8047 206.443 45.5573 206.875 46.125C207.312 46.6927 207.896 46.9766 208.625 46.9766C209.359 46.9766 209.943 46.6901 210.375 46.1172C210.807 45.5391 211.023 44.7318 211.023 43.6953C211.023 42.7682 210.802 42.0182 210.359 41.4453C209.922 40.8672 209.339 40.5781 208.609 40.5781C207.896 40.5781 207.32 40.862 206.883 41.4297C206.445 41.9974 206.227 42.8099 206.227 43.8672ZM217.672 46.9766C218.188 46.9766 218.638 46.8203 219.023 46.5078C219.409 46.1953 219.622 45.8047 219.664 45.3359H221.031C221.005 45.8203 220.839 46.2812 220.531 46.7188C220.224 47.1562 219.812 47.5052 219.297 47.7656C218.786 48.026 218.245 48.1562 217.672 48.1562C216.521 48.1562 215.604 47.7734 214.922 47.0078C214.245 46.237 213.906 45.1849 213.906 43.8516V43.6094C213.906 42.7865 214.057 42.0547 214.359 41.4141C214.661 40.7734 215.094 40.276 215.656 39.9219C216.224 39.5677 216.893 39.3906 217.664 39.3906C218.612 39.3906 219.398 39.6745 220.023 40.2422C220.654 40.8099 220.99 41.5469 221.031 42.4531H219.664C219.622 41.9062 219.414 41.4583 219.039 41.1094C218.669 40.7552 218.211 40.5781 217.664 40.5781C216.93 40.5781 216.359 40.8438 215.953 41.375C215.552 41.901 215.352 42.6641 215.352 43.6641V43.9375C215.352 44.9115 215.552 45.6615 215.953 46.1875C216.354 46.7135 216.927 46.9766 217.672 46.9766ZM228.938 40.7188H226.102V48H224.656V40.7188H221.875V39.5469H228.938V40.7188ZM235.812 39.5469H237.258V48H235.812V41.8359L231.914 48H230.469V39.5469H231.914V45.7188L235.812 39.5469ZM242.211 44.3984H241.156V48H239.703V39.5469H241.156V43.125H242.102L244.945 39.5469H246.695L243.352 43.6094L246.977 48H245.141L242.211 44.3984ZM253.438 48C253.354 47.8333 253.286 47.5365 253.234 47.1094C252.562 47.8073 251.76 48.1562 250.828 48.1562C249.995 48.1562 249.31 47.9219 248.773 47.4531C248.242 46.9792 247.977 46.3802 247.977 45.6562C247.977 44.776 248.31 44.0938 248.977 43.6094C249.648 43.1198 250.591 42.875 251.805 42.875H253.211V42.2109C253.211 41.7057 253.06 41.3047 252.758 41.0078C252.456 40.7057 252.01 40.5547 251.422 40.5547C250.906 40.5547 250.474 40.6849 250.125 40.9453C249.776 41.2057 249.602 41.5208 249.602 41.8906H248.148C248.148 41.4688 248.297 41.0625 248.594 40.6719C248.896 40.276 249.302 39.9635 249.812 39.7344C250.328 39.5052 250.893 39.3906 251.508 39.3906C252.482 39.3906 253.245 39.6354 253.797 40.125C254.349 40.6094 254.635 41.2786 254.656 42.1328V46.0234C254.656 46.7995 254.755 47.4167 254.953 47.875V48H253.438ZM251.039 46.8984C251.492 46.8984 251.922 46.7812 252.328 46.5469C252.734 46.3125 253.029 46.0078 253.211 45.6328V43.8984H252.078C250.307 43.8984 249.422 44.4167 249.422 45.4531C249.422 45.9062 249.573 46.2604 249.875 46.5156C250.177 46.7708 250.565 46.8984 251.039 46.8984Z" fill="#226463"/>
    <g clip-path="url(#clip0)">
        <path d="M32.4423 61.3946C48.9247 61.3946 62.2864 48.0329 62.2864 31.5505C62.2864 15.068 48.9247 1.70636 32.4423 1.70636C15.9598 1.70636 2.59814 15.068 2.59814 31.5505C2.59814 48.0329 15.9598 61.3946 32.4423 61.3946Z" fill="#73C8C9"/>
        <path d="M21.1002 51.9288C32.0723 51.9288 40.967 43.0341 40.967 32.062C40.967 21.0899 32.0723 12.1952 21.1002 12.1952C10.1281 12.1952 1.2334 21.0899 1.2334 32.062C1.2334 43.0341 10.1281 51.9288 21.1002 51.9288Z" fill="#F16272"/>
        <path d="M49.6411 5.30455C49.3583 5.11321 49.0707 4.92909 48.7795 4.75219C43.8997 1.74131 38.1547 0 32.0006 0C14.3264 0 0 14.3264 0 32.0006C0 32.015 0.00120339 32.0307 0.00120339 32.0451C0.00120339 32.0596 0 32.0752 0 32.0897C0 32.4699 0.0108305 32.8466 0.0312882 33.222C0.6739 50.3283 14.7367 64.0012 32.0006 64.0012C49.6736 64.0012 64.0012 49.6736 64.0012 32.0006C64 20.8476 58.2923 11.0327 49.6411 5.30455ZM3.60536 34.8623C3.49224 33.8334 3.43207 32.79 3.43207 31.731C3.43207 31.3231 3.44411 30.9175 3.46096 30.5144C4.2588 21.4577 11.8594 14.3553 21.1219 14.3553C30.9163 14.3553 38.8575 22.2952 38.8575 32.0909C38.8575 41.8853 30.9175 49.8264 21.1219 49.8264C12.271 49.8252 4.93631 43.3402 3.60536 34.8623ZM31.9404 60.2779C23.2303 60.2779 15.4419 56.3561 10.2276 50.1875C13.4094 52.1069 17.1363 53.2128 21.1231 53.2128C32.7888 53.2128 42.2463 43.7553 42.2463 32.0897C42.2463 20.424 32.7888 10.9665 21.1231 10.9665C16.6465 10.9665 12.4972 12.3637 9.0808 14.7391C13.7993 8.43096 21.075 4.14448 29.3748 3.42846C29.2797 3.46938 29.1895 3.51992 29.0956 3.56204C30.0319 3.46938 30.9813 3.42004 31.9416 3.42004C47.6423 3.42004 60.3706 16.1483 60.3706 31.849C60.3694 47.5508 47.6411 60.2779 31.9404 60.2779Z" fill="#226463"/>
        <path d="M16.4082 41.0224C16.4082 40.5796 16.4082 40.2631 16.4082 39.9321C16.8282 39.9321 17.194 39.9321 17.5803 39.9321C17.5803 41.0369 17.5803 42.1055 17.5803 43.1873C14.4359 42.2715 11.6897 39.0838 11.2192 36.3942C13.5044 36.3942 16.9341 36.3942 19.797 36.3942C20.7488 36.3942 21.6382 36.3942 22.4023 36.3942C25.2652 36.3942 28.6948 36.3942 30.9801 36.3942C30.5108 39.0838 27.7634 42.2703 24.619 43.1873C24.619 42.1055 24.619 41.0369 24.619 39.9321C25.0052 39.9321 25.3711 39.9321 25.7911 39.9321C25.7911 40.2631 25.7911 40.5808 25.7911 41.0224C27.0462 40.2402 27.9439 39.2931 28.7057 38.0861C26.3831 38.0861 24.1532 38.0861 21.8692 38.0861C21.8692 40.7517 21.8692 43.4268 21.8692 46.1019C27.8573 46.0743 33.6528 40.7505 33.7503 34.4627C32.3953 34.4627 30.7996 34.4627 29.1269 34.4627C28.6491 34.4627 28.1678 34.4627 27.6816 34.4627H27.3495V33.0981H33.7515V31.1546H21.8692V29.6624C22.0485 29.6624 22.2194 29.6624 22.4023 29.6624C23.4769 29.6624 24.6165 29.6624 25.7682 29.6624H27.6816C28.1678 29.6624 28.6503 29.6624 29.1269 29.6624C30.7996 29.6624 32.3953 29.6624 33.7503 29.6624C33.6528 23.3747 27.8573 18.0509 21.8692 18.0232C21.8692 20.6983 21.8692 23.3735 21.8692 26.039C24.1532 26.039 26.3819 26.039 28.7057 26.039C27.9451 24.8308 27.0462 23.8837 25.7911 23.1027C25.7911 23.5456 25.7911 23.8621 25.7911 24.193C25.3711 24.193 25.0052 24.193 24.619 24.193C24.619 23.0883 24.619 22.0197 24.619 20.9378C27.7634 21.8536 30.5096 25.0414 30.9801 27.731C28.6948 27.731 25.2652 27.731 22.4023 27.731C21.4504 27.731 20.5611 27.731 19.797 27.731C16.9341 27.731 13.5044 27.731 11.2192 27.731C11.6885 25.0414 14.4359 21.8548 17.5803 20.9378C17.5803 22.0197 17.5803 23.0883 17.5803 24.193C17.194 24.193 16.8282 24.193 16.4082 24.193C16.4082 23.8621 16.4082 23.5444 16.4082 23.1027C15.1531 23.8849 14.2553 24.832 13.4936 26.039C15.8161 26.039 18.046 26.039 20.3301 26.039C20.3301 23.3735 20.3301 20.6983 20.3301 18.0232C14.342 18.0509 8.54645 23.3747 8.44897 29.6624C9.50555 29.6624 10.7089 29.6624 11.9797 29.6624C12.8004 29.6624 13.6476 29.6624 14.5044 29.6624H16.4178C17.5743 29.6624 18.7187 29.6624 19.797 29.6624C19.9666 29.6624 20.1532 29.6624 20.3301 29.6624V31.1546H8.44897V33.0981H14.8486V34.4627H14.5044C13.6476 34.4627 12.8004 34.4627 11.9797 34.4627C10.7077 34.4627 9.50435 34.4627 8.44897 34.4627C8.54645 40.7505 14.342 46.0743 20.3301 46.1019C20.3301 43.4268 20.3301 40.7517 20.3301 38.0861C18.046 38.0861 15.8173 38.0861 13.4936 38.0861C14.2541 39.2931 15.1531 40.2402 16.4082 41.0224ZM16.3865 33.0969H25.8103V34.4615H25.7682C24.6165 34.4615 23.4769 34.4615 22.4023 34.4615C21.6033 34.4615 20.7224 34.4615 19.797 34.4615C18.7187 34.4615 17.5743 34.4615 16.4178 34.4615H16.3865V33.0969Z" fill="#F6D394"/>
    </g>
    <defs>
        <clipPath id="clip0">
            <rect width="64" height="64" fill="white"/>
        </clipPath>
    </defs>
</svg>
