<svg width="61" height="57" viewBox="0 0 61 57" fill="none" xmlns="http://www.w3.org/2000/svg">
<path d="M57.7998 32.8884C57.6086 32.2698 56.952 31.9237 56.334 32.1146C55.7154 32.3057 55.3691 32.9621 55.5601 33.5804C56.9581 38.105 57.667 42.8002 57.667 47.536C57.667 51.4619 54.473 54.6559 50.5471 54.6559H45.5644C41.6386 54.6559 38.4446 51.4619 38.4446 47.536V43.5079C40.3373 46.4117 43.1604 48.3932 46.6753 49.3424C46.7777 49.37 47.5088 48.2099 47.5088 49.3424C48.0254 49.3424 47.3656 49.7652 47.5067 49.2425C47.6754 48.6176 48.0096 48.5358 47.3847 48.367C42.1209 46.9457 38.4446 42.1452 38.4446 36.6928V19.6069C38.4446 17.3329 39.9385 15.9687 41.3366 15.4503C42.7346 14.9322 44.7567 14.9923 46.2393 16.7167C48.2147 19.0144 49.9764 21.5141 51.4753 24.1467C51.7955 24.7093 52.5113 24.9057 53.0738 24.5853C53.6363 24.2651 53.8327 23.5494 53.5124 22.9868C51.9392 20.2237 50.0902 17.6 48.0167 15.1883C46.1492 13.0163 43.2072 12.2562 40.5215 13.2523C37.8359 14.2482 36.1005 16.7425 36.1005 19.6069V27.7999L33.7563 25.4557V2.84934C33.7563 2.20199 33.2315 1.67725 32.5842 1.67725H27.427C26.7796 1.67725 26.2549 2.20199 26.2549 2.84934V25.4559L23.9107 27.8V19.607C23.9107 16.7426 22.1753 14.2483 19.4897 13.2525C16.8041 12.2567 13.862 13.0165 11.9945 15.1885C4.25974 24.1841 0 35.6722 0 47.536C0 52.7545 4.24556 57 9.46406 57H14.4467C19.6651 57 23.9107 52.7545 23.9107 47.536V31.0056L26.6716 28.5052C26.6716 28.5052 28.1643 31.0056 30.0056 31.0056C31.8469 31.0056 33.3395 28.5052 33.3395 28.5052L36.1005 31.0056V47.536C36.1005 52.7545 40.346 57 45.5645 57H50.5472C55.7656 57 60.0112 52.7545 60.0112 47.536C60.0112 42.5654 59.2671 37.6372 57.7998 32.8884ZM21.5665 36.6928C21.5665 42.1452 21.6707 41.0075 21.6707 41.841C21.6707 41.841 21.6707 42.6745 21.6707 43.5079C21.6707 43.5079 21.6707 43.5079 21.6707 44.3414L21.5666 47.5361C21.5665 51.4619 18.3726 54.6559 14.4466 54.6559H9.46406C5.53814 54.6559 2.34419 51.4619 2.34419 47.536C2.34419 36.2325 6.40256 25.2874 13.772 16.7166C15.2546 14.9923 17.2768 14.9319 18.6747 15.4503C20.0727 15.9687 21.5665 17.3329 21.5665 19.6069V36.6928ZM30.0056 28.9984C28.9071 28.9984 28.0165 27.0093 28.0165 27.0093L28.2558 26.7701C28.4755 26.5504 28.5991 26.2522 28.5991 25.9413V3.70887H31.4121V25.9413C31.4121 26.2522 31.5356 26.5504 31.7554 26.7701L31.9946 27.0093C31.9946 27.0093 31.1041 28.9984 30.0056 28.9984Z" fill="white"/>
<path d="M54.8493 29.4582C55.1588 29.4582 55.4612 29.3328 55.6792 29.1148C55.8972 28.8968 56.0226 28.5944 56.0226 28.2861C56.0226 27.9767 55.8972 27.6743 55.6792 27.4563C55.4612 27.2383 55.1588 27.114 54.8493 27.114C54.5411 27.114 54.2387 27.2383 54.0207 27.4563C53.8027 27.6754 53.6772 27.9767 53.6772 28.2861C53.6772 28.5944 53.8027 28.8968 54.0207 29.1148C54.2387 29.3328 54.5411 29.4582 54.8493 29.4582Z" fill="white"/>
<path d="M30.0056 3.16698C30.5267 3.16698 31.0232 3.06243 31.4079 2.87007C31.7628 2.69266 32.1726 2.35506 32.1726 1.83349C32.1726 1.31191 31.7628 0.974317 31.4079 0.796909C31.0232 0.604548 30.5267 0.5 30.0056 0.5C29.4845 0.5 28.988 0.604548 28.6033 0.796909C28.2484 0.974317 27.8386 1.31191 27.8386 1.83349C27.8386 2.35506 28.2484 2.69266 28.6033 2.87007C28.988 3.06243 29.4845 3.16698 30.0056 3.16698Z" fill="white" stroke="white"/>
<path d="M12.5358 47.6809C17.7994 46.2595 21.6708 41.4589 21.6708 36.0066L21.6709 43.8793C19.7782 46.7829 16.6619 48.9949 13.1469 49.9441C13.0446 49.9717 12.9418 49.9849 12.8406 49.9849C12.324 49.9849 11.8509 49.6406 11.7098 49.118C11.541 48.493 11.9108 47.8497 12.5358 47.6809Z" fill="white"/>
<path d="M47.4757 47.6809C42.2121 46.2595 38.3407 41.4589 38.3407 36.0066L38.3406 43.8793C40.2332 46.7829 43.3496 48.9949 46.8646 49.9441C46.9669 49.9717 47.0697 49.9849 47.1709 49.9849C47.6875 49.9849 48.1606 49.6406 48.3017 49.118C48.4705 48.493 48.1007 47.8497 47.4757 47.6809Z" fill="white"/>
</svg>
