<svg width="32" height="32" viewBox="0 0 32 32" fill="none" xmlns="http://www.w3.org/2000/svg">
    <g clip-path="url(#clip0)">
        <path d="M31.0626 15.0625C30.5449 15.0625 30.1251 15.4822 30.1251 16C30.1251 23.7885 23.7887 30.1249 16.0002 30.1249C8.21169 30.1249 1.8753 23.7885 1.8753 16C1.8753 8.21145 8.21169 1.87505 16.0002 1.87505C18.3751 1.87505 20.6853 2.46473 22.7476 3.58835L21.5756 4.76041C21.3074 5.02853 21.2272 5.43172 21.3723 5.78209C21.5174 6.1324 21.8592 6.36084 22.2384 6.36084H26.7242C27.242 6.36084 27.6617 5.94109 27.6617 5.42334V0.937553C27.6617 0.558368 27.4333 0.216557 27.083 0.0714332C26.7325 -0.0737534 26.3293 0.00649612 26.0613 0.274682L24.1227 2.21323C21.6672 0.763429 18.8753 0.000121147 16.0002 0.000121147C11.7264 0.000121147 7.70845 1.66442 4.68647 4.68634C1.66448 7.70839 0.000244141 11.7263 0.000244141 16C0.000244141 20.2738 1.66448 24.2917 4.68647 27.3137C7.70851 30.3357 11.7264 32 16.0002 32C20.2739 32 24.2918 30.3357 27.3138 27.3137C30.3358 24.2917 32 20.2738 32 16C32.0001 15.4822 31.5804 15.0625 31.0626 15.0625Z" fill="#73C8C9"/>
        <path d="M22.0252 15.0623H16.9377V9.97485C16.9377 9.4571 16.518 9.03735 16.0002 9.03735C15.4825 9.03735 15.0627 9.4571 15.0627 9.97485V15.9998C15.0627 16.5175 15.4825 16.9373 16.0002 16.9373H22.0252C22.5429 16.9373 22.9627 16.5175 22.9627 15.9998C22.9627 15.482 22.5429 15.0623 22.0252 15.0623Z" fill="#73C8C9"/>
    </g>
    <defs>
        <clipPath id="clip0">
            <rect width="32" height="32" fill="white"/>
        </clipPath>
    </defs>
</svg>
