<svg width="56" height="56" viewBox="0 0 56 56" fill="none" xmlns="http://www.w3.org/2000/svg">
<g clip-path="url(#clip0)">
<path d="M37.5438 0H35.5336C33.5274 0 31.8952 1.63213 31.8952 3.6384V18.5342C31.1776 19.4292 28.7967 22.2558 27.4423 23.1815C26.2788 23.9766 25.1239 24.3798 24.0092 24.3798C23.2985 24.3798 22.5867 24.2152 21.8937 23.8906C21.1833 23.5579 20.4582 23.1739 19.7342 22.747C20.0719 21.0424 20.0494 18.4464 18.3402 15.2415C18.0004 14.6045 17.3404 14.2087 16.6179 14.2087C16.3001 14.2087 15.9833 14.2881 15.7013 14.4384C14.7524 14.9446 14.3922 16.1284 14.8983 17.0771C15.463 18.136 15.8147 19.1561 15.949 20.122C13.688 18.3177 12.2865 16.7633 12.2716 16.7465C11.9019 16.3313 11.3708 16.0933 10.8146 16.0933C10.3361 16.0933 9.87559 16.2687 9.51796 16.5872C9.12889 16.9338 8.89812 17.411 8.86805 17.9311C8.83786 18.4512 9.01221 18.9519 9.35853 19.3407C9.40794 19.3963 9.73301 19.7585 10.296 20.318C9.80639 20.2368 9.38058 20.1004 9.07688 19.9212C8.65526 19.6725 8.24584 19.5463 7.86005 19.5463C7.2885 19.5463 6.78026 19.821 6.39052 20.3407C6.07788 20.7575 5.94627 21.2711 6.01999 21.7868C6.0936 22.3025 6.36383 22.7588 6.7806 23.0713C7.8726 23.8902 9.40828 24.3055 11.3452 24.3055C12.6587 24.3055 13.8458 24.1129 14.5431 23.9706C15.3138 24.5446 16.0964 25.0822 16.8791 25.5758C15.435 26.4866 13.6702 27.8675 12.3739 29.7529C12.0787 30.1822 11.9685 30.7007 12.0632 31.213C12.1581 31.7253 12.4469 32.1699 12.8761 32.4651C13.2028 32.6897 13.5843 32.8084 13.9794 32.8084C14.6226 32.8084 15.2242 32.4923 15.5882 31.9629C17.1574 29.6805 19.8185 28.3088 21.0604 27.7627C22.029 28.1121 23.0222 28.289 24.0157 28.289C24.3142 28.289 24.616 28.2727 24.918 28.2406C24.8561 29.9898 24.3405 32.7777 22.0194 35.1321C19.3592 34.8686 17.0683 34.3112 16.3678 34.1062C15.8801 33.9198 15.4948 33.8328 15.1563 33.8328C14.4703 33.8328 14.0397 34.2039 13.7414 34.5272C13.385 34.9132 13.2183 35.3929 13.2721 35.8779C13.3223 36.3309 13.5531 36.7589 13.9395 37.1155C14.485 37.6191 15.3502 38.0482 17.6456 38.4678C17.4025 38.9855 17.3897 39.6017 17.6494 40.1434C17.972 40.8164 18.6627 41.2512 19.4092 41.2512C19.7022 41.2512 19.9855 41.1866 20.2512 41.0592C21.3157 40.5489 22.2965 39.9559 23.1788 39.2894C23.0565 40.4356 22.7027 41.6687 21.8296 42.42C21.4347 42.7598 21.1957 43.2331 21.1568 43.7527C21.1179 44.2722 21.2835 44.7758 21.6234 45.1708C21.9943 45.6017 22.5334 45.8489 23.1023 45.8489C23.5685 45.8489 24.0201 45.6813 24.3739 45.377C27.8271 42.4056 27.1988 37.0539 26.8539 35.2025C27.5385 34.0427 28.0509 32.7835 28.378 31.457C28.8217 29.6577 28.8556 28.0509 28.789 26.9368C29.1086 26.7542 29.4228 26.5557 29.7264 26.3449C30.6974 25.6705 31.4019 25.0217 31.8953 24.4906V52.3618C31.8953 54.3681 33.5275 56.0002 35.5337 56.0002H37.544C39.5502 56.0002 41.1824 54.3681 41.1824 52.3618V3.6384C41.1822 1.63213 39.5501 0 37.5438 0ZM32.8563 3.6384C32.8563 2.16207 34.0573 0.961073 35.5336 0.961073H37.5438C39.0202 0.961073 40.2212 2.16207 40.2212 3.6384V3.68543C40.2212 5.16175 39.0202 6.36275 37.5438 6.36275H35.5336C34.0573 6.36275 32.8563 5.16175 32.8563 3.68543V3.6384ZM40.2212 52.3617C40.2212 53.838 39.0202 55.039 37.5438 55.039H35.5336C34.0573 55.039 32.8563 53.838 32.8563 52.3617V23.1112C32.8563 22.9012 32.7199 22.7157 32.5197 22.6527C32.4722 22.6378 32.4237 22.6305 32.3758 22.6305C32.2215 22.6305 32.073 22.7051 31.9814 22.8364C31.9764 22.8436 31.9677 22.8568 31.9552 22.8761C31.6936 23.2834 30.8995 24.3596 29.1779 25.5554C28.8179 25.8055 28.4418 26.0365 28.0601 26.242C27.892 26.3325 27.7935 26.5141 27.809 26.7044C27.8943 27.7472 27.9006 29.3782 27.4447 31.2267C27.1258 32.5194 26.6184 33.7428 25.9365 34.8631C25.8737 34.9661 25.852 35.089 25.8758 35.2073C26.1805 36.73 26.9276 41.9114 23.7468 44.6484C23.5674 44.8027 23.3384 44.8877 23.1021 44.8877C22.8133 44.8877 22.5397 44.7624 22.3516 44.5437C22.1791 44.3433 22.0951 44.0879 22.1148 43.8243C22.1346 43.5608 22.2558 43.3207 22.4561 43.1484C23.8843 41.9195 24.19 39.7984 24.195 38.2353C24.1956 38.0464 24.0854 37.8746 23.9135 37.7964C23.7416 37.7181 23.5397 37.748 23.3975 37.8726C22.3761 38.7685 21.1777 39.549 19.8354 40.1924C19.7004 40.2572 19.5569 40.29 19.4089 40.29C19.03 40.29 18.6794 40.0694 18.5157 39.7279C18.3134 39.3057 18.4367 38.7944 18.8093 38.5123C18.9627 38.3961 19.032 38.1995 18.9853 38.0128C18.9386 37.826 18.7851 37.6851 18.5949 37.6547C15.7663 37.2029 14.9836 36.7714 14.591 36.409C14.3802 36.2146 14.251 35.9882 14.227 35.7718C14.2037 35.5618 14.2778 35.3623 14.4471 35.1789C14.7445 34.8566 14.9322 34.7937 15.1559 34.7937C15.3737 34.7937 15.6631 34.8643 16.0405 35.0098C16.0525 35.0145 16.0647 35.0187 16.0771 35.0223C16.9753 35.2878 19.4012 35.8568 22.1536 36.1101C22.2939 36.1232 22.4319 36.074 22.5326 35.9761C25.5143 33.0775 25.9123 29.5343 25.8841 27.6802C25.882 27.5398 25.8184 27.4072 25.7103 27.3175C25.6022 27.2279 25.4606 27.1902 25.3217 27.214C23.937 27.4534 22.5567 27.3106 21.2193 26.7961C21.1031 26.7513 20.9738 26.7535 20.8591 26.8022C19.6325 27.3225 16.5863 28.8139 14.7958 31.4181C14.6112 31.6867 14.3059 31.8471 13.9791 31.8471C13.7792 31.8472 13.5859 31.787 13.42 31.6729C13.2023 31.5232 13.0558 31.2976 13.0077 31.0378C12.9596 30.778 13.0155 30.5148 13.1652 30.2972C14.5732 28.2493 16.5946 26.8281 18.0424 25.9963C18.1903 25.9114 18.2821 25.7544 18.2836 25.5839C18.2851 25.4134 18.196 25.2547 18.0497 25.1672C17.0119 24.5467 15.9674 23.8416 14.9454 23.0714C14.8335 22.9869 14.6901 22.9558 14.5532 22.9858C13.9433 23.1197 12.7156 23.3442 11.3446 23.3442C9.62028 23.3442 8.2784 22.9936 7.35656 22.3023C7.14513 22.1438 7.00809 21.9123 6.97078 21.6507C6.93335 21.3892 7.00017 21.1286 7.15869 20.9171C7.36561 20.6412 7.5948 20.5071 7.85937 20.5071C8.07104 20.5071 8.31605 20.5884 8.58775 20.7488C9.2942 21.1654 10.4036 21.393 11.59 21.3613C11.7854 21.3562 11.9582 21.2331 12.027 21.0502C12.0959 20.8673 12.0472 20.6609 11.9038 20.5282C10.7688 19.4778 10.1036 18.7328 10.0757 18.7013C9.8999 18.504 9.81148 18.2501 9.82675 17.9862C9.84201 17.7224 9.95915 17.4802 10.1564 17.3045C10.3379 17.1429 10.5714 17.054 10.8139 17.054C11.0963 17.054 11.3657 17.1747 11.5537 17.3859C11.5715 17.4058 13.366 19.4022 16.2007 21.5327C16.3446 21.6409 16.5371 21.6595 16.699 21.5809C16.861 21.5024 16.9655 21.3399 16.9698 21.1598C17.003 19.7359 16.5912 18.21 15.7456 16.6244C15.4888 16.1431 15.6716 15.5427 16.1529 15.2859C16.2982 15.2085 16.4544 15.1692 16.6172 15.1692C16.9841 15.1692 17.3192 15.37 17.4915 15.6932C19.1792 18.8578 19.0927 21.3418 18.7229 22.8682C18.6735 23.0717 18.7618 23.2838 18.9409 23.3924C19.7916 23.908 20.6477 24.3682 21.4855 24.7605C22.307 25.1453 23.1558 25.3404 24.0086 25.3404C25.3203 25.3404 26.6577 24.8809 27.9839 23.9746C29.7414 22.7735 32.7446 19.0114 32.768 18.9781C32.8251 18.8972 32.8556 18.8005 32.8556 18.7015V6.14589C33.521 6.86941 34.4748 7.32371 35.5329 7.32371H37.5315L37.591 7.77778C37.591 8.04315 37.6946 7.32371 37.96 7.32371C38.2253 7.32371 38.3687 8.04315 38.3687 7.77778L38.4926 7.22715C38.4926 7.2172 38.4902 7.20793 38.4897 7.19809C39.1638 7.01628 39.761 6.64553 40.2205 6.14589L40.2212 52.3617Z" fill="white" stroke="white" stroke-width="0.4"/>
<path d="M38.0128 38.0261C37.7474 38.0261 37.5322 38.2413 37.5322 38.5067V45.1041C37.5322 45.3695 37.7474 45.5847 38.0128 45.5847C38.2781 45.5847 38.4933 45.3695 38.4933 45.1041V38.5067C38.4933 38.2413 38.2781 38.0261 38.0128 38.0261Z" fill="white"/>
<path d="M38.0716 7.29724C37.8062 7.29724 37.5911 7.51241 37.5911 7.77778V34.5975C37.5911 34.8629 37.8062 35.078 38.0716 35.078C38.337 35.078 38.5521 34.8629 38.5521 34.5975V7.77778C38.5521 7.51241 38.337 7.29724 38.0716 7.29724Z" fill="white" stroke="#3A9CFE" stroke-width="0.2"/>
</g>
<defs>
<clipPath id="clip0">
<rect width="56" height="56" fill="white"/>
</clipPath>
</defs>
</svg>
